<svg preserveAspectRatio="none" width="100%" height="100%" overflow="visible" style="display: block;" viewBox="0 0 307 233" fill="none" xmlns="http://www.w3.org/2000/svg">
<g id="Group 19">
<path id="Vector" d="M296.411 84.7292V74.1406H307V31.7865H296.411V21.1927H285.828V10.6042H275.24V0.015625H232.896V10.6042H222.307V21.1927H211.724V31.7865H201.135V42.375H190.552V52.9635H169.38V42.375H137.62V52.9635H116.448V42.375H105.859V31.7865H95.276V21.1927H84.6875V10.6042H74.1042V0.015625H31.7552V10.6042H21.1719V21.1927H10.5833V31.7865H0V74.1406H10.5833V84.7292H21.1719V95.3177H10.5833V105.906H0V148.266H10.5833V158.854H21.1719V169.443H31.7552V180.031H52.9271V190.62H63.5156V201.208H74.1042V211.797H84.6875V222.391H95.276V232.979H116.448V222.391H127.031V201.208H137.62V158.854H148.203V137.677H158.792V158.854H169.38V201.208H179.964V222.391H190.552V232.979H211.724V222.391H222.307V211.797H232.896V201.208H243.479V190.62H254.068V180.031H275.24V169.443H285.828V158.854H296.411V148.266H307V105.906H296.411V95.3177H285.828V84.7292H296.411Z" fill="var(--fill-0, #BE0049)"/>
<path id="Vector_2" d="M116.448 127.088V137.677H105.859V148.265H95.276V158.854H84.6875V169.443H74.1042V180.031H63.5156V190.62H74.1042V201.208H84.6875V211.797H95.276V222.39H116.448V201.208H127.031V158.854H137.62V127.088H116.448Z" fill="var(--fill-0, #FAC2D8)"/>
<path id="Vector_3" d="M179.964 116.495V105.906H190.552V74.1405H179.964V63.5519H169.38V52.9634H137.62V63.5519H127.031V74.1405H116.448V105.906H127.031V116.495H137.62V127.088H169.38V116.495H179.964ZM148.203 105.906H137.62V74.1405H148.203V105.906ZM158.792 105.906V74.1405H169.38V105.906H158.792Z" fill="var(--fill-0, #FAC2D8)"/>
<path id="Vector_4" d="M84.6877 158.854V148.265H95.2762V137.677H105.86V127.088H116.448V105.906H105.86V95.3175H95.2762V105.906H74.1043V116.495H63.5158V127.088H52.9272V116.495H63.5158V105.906H74.1043V95.3175H95.2762V84.729H74.1043V74.1405H63.5158V63.5519H52.9272V52.9634H63.5158V63.5519H74.1043V74.1405H95.2762V84.729H105.86V74.1405H116.448V52.9634H105.86V42.3748H95.2762V31.7863H84.6877V21.1925H74.1043V10.604H31.7554V21.1925H21.172V31.7863H10.5835V74.1405H21.172V84.729H31.7554V95.3175H21.172V105.906H10.5835V148.265H21.172V158.854H31.7554V169.443H74.1043V158.854H84.6877Z" fill="var(--fill-0, #FAC2D8)"/>
<path id="Vector_5" d="M222.307 158.854H211.724V148.265H201.136V137.677H190.552V127.088H169.38V158.854H179.964V201.208H190.552V222.39H211.724V211.797H222.307V201.208H232.896V190.62H243.479V180.031H232.896V169.443H222.307V158.854Z" fill="var(--fill-0, #FAC2D8)"/>
<path id="Vector_6" d="M285.828 84.729V74.1405H296.412V31.7863H285.828V21.1925H275.24V10.604H232.896V21.1925H222.307V31.7863H211.724V42.3748H201.136V52.9634H190.552V74.1405H201.136V84.729H211.724V74.1405H232.896V84.729H211.724V95.3175H232.896V105.906H243.479V116.495H254.068V127.088H243.479V116.495H232.896V105.906H211.724V95.3175H201.136V105.906H190.552V127.088H201.136V137.677H211.724V148.265H222.307V158.854H232.896V169.443H275.24V158.854H285.828V148.265H296.412V105.906H285.828V95.3175H275.24V84.729H285.828Z" fill="var(--fill-0, #FAC2D8)"/>
<path id="Vector_7" d="M52.9272 116.495H63.5158V127.088H52.9272V116.495Z" fill="var(--fill-0, #BE0049)"/>
<path id="Vector_8" d="M52.9272 52.9634H63.5158V63.5519H52.9272V52.9634Z" fill="var(--fill-0, #BE0049)"/>
<path id="Vector_9" d="M243.479 116.495H254.068V127.088H243.479V116.495Z" fill="var(--fill-0, #BE0049)"/>
<path id="Vector_10" d="M243.479 52.9634H254.068V63.5519H243.479V52.9634Z" fill="var(--fill-0, #BE0049)"/>
<path id="Vector_11" d="M231.781 0H275.781V11.2083H231.781V0Z" fill="var(--fill-0, black)"/>
<path id="Vector_12" d="M232.896 0.015625H275.24V10.6042H232.896V0.015625Z" fill="var(--fill-0, #BE0049)"/>
<path id="Vector_13" d="M232.896 63.5518H243.479V74.1403H232.896V63.5518Z" fill="var(--fill-0, #BE0049)"/>
<path id="Vector_14" d="M169.38 158.854H179.964V201.208H169.38V158.854Z" fill="var(--fill-0, #BE0049)"/>
<path id="Vector_15" d="M74.1043 180.031V169.442H31.7554V180.031H52.9272V190.619H63.5158V180.031H74.1043Z" fill="var(--fill-0, #BE0049)"/>
<path id="Vector_16" d="M63.5156 63.5518H74.1042V74.1403H63.5156V63.5518Z" fill="var(--fill-0, #BE0049)"/>
<path id="Vector_17" d="M63.5156 105.906H74.1042V116.495H63.5156V105.906Z" fill="var(--fill-0, #BE0049)"/>
<path id="Vector_18" d="M232.896 105.906H243.479V116.495H232.896V105.906Z" fill="var(--fill-0, #BE0049)"/>
<path id="Vector_19" d="M232.896 180.031H243.479V190.619H254.068V180.031H275.24V169.442H232.896V180.031Z" fill="var(--fill-0, #BE0049)"/>
<path id="Vector_20" d="M30.448 0H74.448V11.2083H30.448V0Z" fill="var(--fill-0, black)"/>
<path id="Vector_21" d="M31.7554 0.015625H74.1043V10.6042H31.7554V0.015625Z" fill="var(--fill-0, #BE0049)"/>
<path id="Vector_22" d="M232.896 190.62H243.479V201.208H232.896V190.62Z" fill="var(--fill-0, #BE0049)"/>
<path id="Vector_23" d="M63.5156 190.62H74.1042V201.208H63.5156V190.62Z" fill="var(--fill-0, #BE0049)"/>
<path id="Vector_24" d="M190.552 42.375H201.136V52.9635H190.552V42.375Z" fill="var(--fill-0, #BE0049)"/>
<path id="Vector_25" d="M190.552 95.3177V105.906H201.136V95.3177H211.724V84.7292H201.136V74.1406H190.552V95.3177Z" fill="var(--fill-0, #BE0049)"/>
<path id="Vector_26" d="M116.448 84.7292V74.1406H105.859V84.7292H95.2761V95.3177H105.859V105.906H116.448V84.7292Z" fill="var(--fill-0, #BE0049)"/>
<path id="Vector_27" d="M105.859 127.088H116.448V137.677H105.859V127.088Z" fill="var(--fill-0, #BE0049)"/>
<path id="Vector_28" d="M190.552 127.088H201.136V137.677H190.552V127.088Z" fill="var(--fill-0, #BE0049)"/>
<path id="Vector_29" d="M201.135 137.677H211.724V148.265H201.135V137.677Z" fill="var(--fill-0, #BE0049)"/>
<path id="Vector_30" d="M158.792 127.088H137.62V158.854H148.203V137.677H158.792V158.854H169.38V127.088H158.792Z" fill="var(--fill-0, #BE0049)"/>
<path id="Vector_31" d="M95.2761 31.7861H105.859V42.3747H95.2761V31.7861Z" fill="var(--fill-0, #BE0049)"/>
<path id="Vector_32" d="M95.2761 137.677H105.859V148.265H95.2761V137.677Z" fill="var(--fill-0, #BE0049)"/>
<path id="Vector_33" d="M179.964 63.5519V74.1405H190.552V52.9634H169.38V63.5519H179.964Z" fill="var(--fill-0, #BE0049)"/>
<path id="Vector_34" d="M158.792 74.1406H169.38V105.906H158.792V74.1406Z" fill="var(--fill-0, #BE0049)"/>
<path id="Vector_35" d="M137.62 74.1406H148.203V105.906H137.62V74.1406Z" fill="var(--fill-0, #BE0049)"/>
<path id="Vector_36" d="M137.62 42.375H169.38V52.9635H137.62V42.375Z" fill="var(--fill-0, #BE0049)"/>
<path id="Vector_37" d="M105.859 42.375H116.448V52.9635H105.859V42.375Z" fill="var(--fill-0, #BE0049)"/>
<path id="Vector_38" d="M179.964 116.495H169.38V127.089H190.552V105.906H179.964V116.495Z" fill="var(--fill-0, #BE0049)"/>
<path id="Vector_39" d="M116.448 74.1405H127.031V63.5519H137.62V52.9634H116.448V74.1405Z" fill="var(--fill-0, #BE0049)"/>
<path id="Vector_40" d="M127.031 116.495V105.906H116.448V127.089H137.62V116.495H127.031Z" fill="var(--fill-0, #BE0049)"/>
<path id="Vector_41" d="M127.031 158.854H137.62V201.208H127.031V158.854Z" fill="var(--fill-0, #BE0049)"/>
<path id="Vector_42" d="M74.1042 158.854H84.6876V169.443H74.1042V158.854Z" fill="var(--fill-0, #BE0049)"/>
<path id="Vector_43" d="M201.135 31.7861H211.724V42.3747H201.135V31.7861Z" fill="var(--fill-0, #BE0049)"/>
<path id="Vector_44" d="M74.1042 10.604H84.6876V21.1925H74.1042V10.604Z" fill="var(--fill-0, #BE0049)"/>
<path id="Vector_45" d="M74.1042 95.3174V105.906H95.2761V95.3174H74.1042Z" fill="var(--fill-0, #BE0049)"/>
<path id="Vector_46" d="M222.307 10.604H232.896V21.1925H222.307V10.604Z" fill="var(--fill-0, #BE0049)"/>
<path id="Vector_47" d="M211.724 74.1406H232.896V84.7292H211.724V74.1406Z" fill="var(--fill-0, #BE0049)"/>
<path id="Vector_48" d="M222.307 158.854H232.896V169.443H222.307V158.854Z" fill="var(--fill-0, #BE0049)"/>
<path id="Vector_49" d="M84.6876 74.1406H74.1042V84.7292H95.2761V74.1406H84.6876Z" fill="var(--fill-0, #BE0049)"/>
<path id="Vector_50" d="M84.6875 148.266H95.276V158.854H84.6875V148.266Z" fill="var(--fill-0, #BE0049)"/>
<path id="Vector_51" d="M84.6875 21.1924H95.276V31.7861H84.6875V21.1924Z" fill="var(--fill-0, #BE0049)"/>
<path id="Vector_52" d="M211.724 21.1924H222.307V31.7861H211.724V21.1924Z" fill="var(--fill-0, #BE0049)"/>
<path id="Vector_53" d="M211.724 148.266H222.307V158.854H211.724V148.266Z" fill="var(--fill-0, #BE0049)"/>
<path id="Vector_54" d="M211.724 95.3174H232.896V105.906H211.724V95.3174Z" fill="var(--fill-0, #BE0049)"/>
<path id="Vector_55" d="M295.781 31.208H307V75.208H295.781V31.208Z" fill="var(--fill-0, black)"/>
<path id="Vector_56" d="M296.412 31.7861H307V74.1403H296.412V31.7861Z" fill="var(--fill-0, #BE0049)"/>
<path id="Vector_57" d="M295.781 105.875H307V148.542H295.781V105.875Z" fill="var(--fill-0, black)"/>
<path id="Vector_58" d="M296.412 105.906H307V148.266H296.412V105.906Z" fill="var(--fill-0, #BE0049)"/>
<path id="Vector_59" d="M285.828 21.1924H296.411V31.7861H285.828V21.1924Z" fill="var(--fill-0, #BE0049)"/>
<path id="Vector_60" d="M0 31.208H11.7813V75.208H0V31.208Z" fill="var(--fill-0, black)"/>
<path id="Vector_61" d="M0 31.7861H10.5833V74.1403H0V31.7861Z" fill="var(--fill-0, #BE0049)"/>
<path id="Vector_62" d="M0 105.875H11.7813V148.542H0V105.875Z" fill="var(--fill-0, black)"/>
<path id="Vector_63" d="M0 105.906H10.5833V148.266H0V105.906Z" fill="var(--fill-0, #BE0049)"/>
<path id="Vector_64" d="M21.1719 10.604H31.7552V21.1925H21.1719V10.604Z" fill="var(--fill-0, #BE0049)"/>
<path id="Vector_65" d="M21.1719 84.729H31.7552V95.3175H21.1719V84.729Z" fill="var(--fill-0, #BE0049)"/>
<path id="Vector_66" d="M84.6875 211.797H95.276V222.391H84.6875V211.797Z" fill="var(--fill-0, #BE0049)"/>
<path id="Vector_67" d="M21.1719 158.854H31.7552V169.443H21.1719V158.854Z" fill="var(--fill-0, #BE0049)"/>
<path id="Vector_68" d="M211.724 211.797H222.307V222.391H211.724V211.797Z" fill="var(--fill-0, #BE0049)"/>
<path id="Vector_69" d="M222.307 201.208H232.896V211.797H222.307V201.208Z" fill="var(--fill-0, #BE0049)"/>
<path id="Vector_70" d="M179.964 201.208H190.552V222.39H179.964V201.208Z" fill="var(--fill-0, #BE0049)"/>
<path id="Vector_71" d="M74.1042 201.208H84.6876V211.797H74.1042V201.208Z" fill="var(--fill-0, #BE0049)"/>
<path id="Vector_72" d="M116.448 201.208H127.031V222.39H116.448V201.208Z" fill="var(--fill-0, #BE0049)"/>
<path id="Vector_73" d="M94.448 221.875H117.115V233H94.448V221.875Z" fill="var(--fill-0, black)"/>
<path id="Vector_74" d="M95.2761 222.391H116.448V232.979H95.2761V222.391Z" fill="var(--fill-0, #BE0049)"/>
<path id="Vector_75" d="M10.5835 95.3174H21.172V105.906H10.5835V95.3174Z" fill="var(--fill-0, #BE0049)"/>
<path id="Vector_76" d="M10.5835 74.1406H21.172V84.7292H10.5835V74.1406Z" fill="var(--fill-0, #BE0049)"/>
<path id="Vector_77" d="M10.5835 148.266H21.172V158.854H10.5835V148.266Z" fill="var(--fill-0, #BE0049)"/>
<path id="Vector_78" d="M285.828 148.266H296.411V158.854H285.828V148.266Z" fill="var(--fill-0, #BE0049)"/>
<path id="Vector_79" d="M285.828 95.3174H296.411V105.906H285.828V95.3174Z" fill="var(--fill-0, #BE0049)"/>
<path id="Vector_80" d="M285.828 74.1406H296.411V84.7292H285.828V74.1406Z" fill="var(--fill-0, #BE0049)"/>
<path id="Vector_81" d="M190.448 221.875H211.781V233H190.448V221.875Z" fill="var(--fill-0, black)"/>
<path id="Vector_82" d="M190.552 222.391H211.724V232.979H190.552V222.391Z" fill="var(--fill-0, #BE0049)"/>
<path id="Vector_83" d="M275.24 10.604H285.828V21.1925H275.24V10.604Z" fill="var(--fill-0, #BE0049)"/>
<path id="Vector_84" d="M275.24 158.854H285.828V169.443H275.24V158.854Z" fill="var(--fill-0, #BE0049)"/>
<path id="Vector_85" d="M275.24 84.729H285.828V95.3175H275.24V84.729Z" fill="var(--fill-0, #BE0049)"/>
<path id="Vector_86" d="M10.5835 21.1924H21.172V31.7861H10.5835V21.1924Z" fill="var(--fill-0, #BE0049)"/>
</g>
</svg>
