<svg preserveAspectRatio="none" width="100%" height="100%" overflow="visible" style="display: block;" viewBox="0 0 303.474 64.9743" fill="none" xmlns="http://www.w3.org/2000/svg">
<g id="Group 13">
<path id="Vector" d="M273.13 4.48993H30.349C29.3542 4.48993 28.3646 4.5368 27.375 4.63576C26.3854 4.73472 25.4063 4.87534 24.4271 5.06805C23.4531 5.26597 22.4896 5.50556 21.5417 5.79201C20.5885 6.07847 19.6563 6.4118 18.7344 6.79201C17.8177 7.17222 16.9219 7.5941 16.0417 8.05764C15.1667 8.52639 14.3177 9.0368 13.4896 9.58368C12.6615 10.1358 11.8646 10.7243 11.099 11.3545C10.3281 11.9795 9.59375 12.6462 8.89063 13.3441C8.1875 14.0472 7.52083 14.7816 6.89063 15.5472C6.26042 16.3128 5.66667 17.1045 5.11458 17.9274C4.5625 18.7503 4.05208 19.5993 3.58333 20.4743C3.11458 21.3493 2.69271 22.2399 2.3125 23.1566C1.93229 24.0733 1.59896 25.0056 1.30729 25.9535C1.02083 26.9014 0.776041 27.8597 0.583333 28.8285C0.390624 29.8024 0.244792 30.7816 0.145833 31.766C0.0520827 32.7503 0 33.7399 0 34.7295C0 35.7191 0.0520827 36.7087 0.145833 37.6931C0.244792 38.6826 0.390624 39.6618 0.583333 40.6306C0.776041 41.6045 1.02083 42.5628 1.30729 43.5108C1.59375 44.4587 1.93229 45.391 2.3125 46.3024C2.69271 47.2191 3.11458 48.1149 3.58333 48.9899C4.05208 49.8597 4.5625 50.7087 5.11458 51.5316C5.66667 52.3545 6.26042 53.1514 6.89063 53.917C7.52083 54.6826 8.1875 55.417 8.89063 56.1149C9.59375 56.8181 10.3281 57.4795 11.0938 58.1097C11.8646 58.7399 12.6615 59.3285 13.4896 59.8753C14.3125 60.4274 15.1667 60.9378 16.0417 61.4014C16.9219 61.8701 17.8177 62.292 18.7344 62.6722C19.6563 63.0524 20.5885 63.3858 21.5417 63.6722C22.4896 63.9587 23.4531 64.1983 24.4271 64.391C25.4063 64.5837 26.3854 64.7295 27.375 64.8285C28.3646 64.9274 29.3542 64.9743 30.349 64.9743H273.13C274.12 64.9743 275.115 64.9274 276.104 64.8285C277.094 64.7295 278.073 64.5837 279.047 64.391C280.026 64.1983 280.984 63.9587 281.938 63.6722C282.891 63.3858 283.823 63.0524 284.74 62.6722C285.661 62.292 286.557 61.8701 287.432 61.4014C288.313 60.9378 289.161 60.4274 289.99 59.8753C290.818 59.3285 291.615 58.7399 292.38 58.1097C293.151 57.4795 293.885 56.8181 294.589 56.1149C295.292 55.417 295.958 54.6826 296.589 53.917C297.219 53.1514 297.813 52.3545 298.365 51.5316C298.917 50.7087 299.427 49.8597 299.891 48.9899C300.359 48.1149 300.786 47.2191 301.167 46.3024C301.547 45.391 301.88 44.4587 302.172 43.5108C302.458 42.5628 302.698 41.6045 302.891 40.6306C303.089 39.6618 303.234 38.6826 303.328 37.6931C303.427 36.7087 303.474 35.7191 303.474 34.7295C303.474 33.7399 303.427 32.7503 303.328 31.766C303.234 30.7816 303.089 29.8024 302.891 28.8285C302.698 27.8597 302.458 26.9014 302.167 25.9535C301.88 25.0056 301.547 24.0733 301.167 23.1566C300.786 22.2399 300.359 21.3493 299.891 20.4743C299.422 19.5993 298.911 18.7503 298.359 17.9274C297.807 17.1045 297.219 16.3128 296.589 15.5472C295.958 14.7816 295.292 14.0472 294.589 13.3441C293.885 12.6462 293.151 11.9795 292.38 11.3545C291.609 10.7243 290.813 10.1358 289.99 9.58368C289.161 9.0368 288.313 8.52639 287.432 8.05764C286.557 7.5941 285.661 7.17222 284.74 6.79201C283.823 6.4118 282.891 6.07847 281.938 5.79201C280.984 5.50556 280.021 5.26597 279.047 5.06805C278.073 4.87534 277.094 4.73472 276.104 4.63576C275.115 4.5368 274.12 4.48993 273.13 4.48993Z" fill="var(--fill-0, #FF6E8F)"/>
<path id="Vector_2" d="M273.13 0.000356549H30.349C29.3542 -0.00485145 28.3646 0.0472322 27.375 0.140982C26.3854 0.23994 25.4063 0.385774 24.4271 0.578482C23.4531 0.771191 22.4896 1.01077 21.5417 1.29723C20.5885 1.5889 19.6563 1.92223 18.7344 2.29723C17.8177 2.67744 16.9219 3.09931 16.0417 3.56807C15.1667 4.03681 14.3125 4.54202 13.4896 5.09411C12.6615 5.64619 11.8646 6.23473 11.0938 6.85973C10.3281 7.48994 9.59375 8.15661 8.89063 8.85452C8.1875 9.55765 7.52083 10.2868 6.89063 11.0524C6.26042 11.8181 5.66667 12.6149 5.11458 13.4379C4.5625 14.2608 4.05208 15.1097 3.58333 15.9847C3.11458 16.8597 2.69271 17.7504 2.3125 18.667C1.93229 19.5837 1.59375 20.516 1.30729 21.4639C1.02083 22.4118 0.776041 23.3701 0.583333 24.3389C0.390624 25.3129 0.244792 26.292 0.145833 27.2764C0.0520827 28.2608 0 29.2504 0 30.2399C0 31.2295 0.0520827 32.2191 0.145833 33.2035C0.244792 34.1931 0.390624 35.167 0.583333 36.141C0.776041 37.1097 1.02083 38.0733 1.30729 39.0212C1.59896 39.9691 1.93229 40.9014 2.3125 41.8129C2.69271 42.7295 3.11458 43.6254 3.58333 44.4951C4.05208 45.3701 4.5625 46.2191 5.11458 47.042C5.66667 47.8649 6.26042 48.6618 6.89063 49.4274C7.52083 50.1931 8.1875 50.9222 8.89063 51.6254C9.59375 52.3233 10.3281 52.9899 11.099 53.6201C11.8646 54.2451 12.6615 54.8337 13.4896 55.3858C14.3177 55.9379 15.1667 56.4431 16.0417 56.9118C16.9219 57.3806 17.8177 57.8024 18.7344 58.1826C19.6563 58.5576 20.5885 58.891 21.5417 59.1774C22.4896 59.4691 23.4531 59.7087 24.4271 59.9014C25.4063 60.0941 26.3854 60.2399 27.375 60.3337C28.3646 60.4326 29.3542 60.4795 30.349 60.4795H273.13C274.12 60.4795 275.115 60.4326 276.104 60.3337C277.094 60.2399 278.073 60.0941 279.047 59.9014C280.021 59.7087 280.984 59.4691 281.938 59.1774C282.891 58.891 283.823 58.5576 284.74 58.1826C285.661 57.8024 286.557 57.3806 287.432 56.9118C288.313 56.4431 289.161 55.9379 289.99 55.3858C290.813 54.8337 291.609 54.2451 292.38 53.6201C293.151 52.9899 293.885 52.3233 294.589 51.6254C295.292 50.9222 295.958 50.1931 296.589 49.4274C297.219 48.6618 297.807 47.8649 298.359 47.042C298.911 46.2191 299.422 45.3701 299.891 44.4951C300.359 43.6254 300.786 42.7295 301.167 41.8129C301.547 40.9014 301.88 39.9691 302.167 39.0212C302.458 38.0733 302.698 37.1097 302.891 36.141C303.089 35.167 303.234 34.1931 303.328 33.2035C303.427 32.2191 303.474 31.2295 303.474 30.2399C303.474 29.2504 303.427 28.2608 303.328 27.2764C303.234 26.292 303.089 25.3129 302.891 24.3389C302.698 23.3701 302.458 22.4118 302.172 21.4639C301.88 20.516 301.547 19.5837 301.167 18.667C300.786 17.7504 300.359 16.8597 299.891 15.9847C299.427 15.1097 298.917 14.2608 298.365 13.4379C297.813 12.6149 297.219 11.8181 296.589 11.0524C295.958 10.2868 295.292 9.55765 294.589 8.85452C293.885 8.15661 293.151 7.48994 292.38 6.85973C291.615 6.23473 290.818 5.64619 289.99 5.09411C289.161 4.54202 288.313 4.03681 287.432 3.56807C286.557 3.09931 285.661 2.67744 284.74 2.29723C283.823 1.92223 282.891 1.5889 281.938 1.29723C280.984 1.01077 280.026 0.771191 279.047 0.578482C278.073 0.385774 277.094 0.23994 276.104 0.140982C275.115 0.0472322 274.12 -0.00485145 273.13 0.000356549Z" fill="var(--fill-0, #FF79A2)"/>
<path id="Vector_3" d="M292.578 18.266C280.208 3.50037 272.417 11.2139 272.417 11.2139C266.239 17.2504 307.073 35.5733 292.578 18.266Z" fill="var(--fill-0, #FF99C7)"/>
<path id="Vector_4" d="M270.604 7.27117C269.453 7.0993 259.547 6.28159 263.661 9.83888C267.781 13.3962 275.052 7.917 270.604 7.27117Z" fill="var(--fill-0, #FF99C7)"/>
</g>
</svg>
