<svg preserveAspectRatio="none" width="100%" height="100%" overflow="visible" style="display: block;" viewBox="0 0 302.542 80.8958" fill="none" xmlns="http://www.w3.org/2000/svg">
<g id="Group 12">
<path id="Vector" d="M264.724 5.59375H37.8177C36.5781 5.59375 35.3438 5.65625 34.1094 5.77604C32.875 5.89583 31.651 6.07813 30.4375 6.31771C29.224 6.55729 28.026 6.85938 26.8385 7.21354C25.651 7.57292 24.4896 7.98958 23.3438 8.45833C22.1979 8.93229 21.0833 9.45833 19.9896 10.0365C18.8958 10.6198 17.8333 11.2552 16.8073 11.9375C15.776 12.625 14.7813 13.3594 13.8229 14.1406C12.8698 14.9219 11.9531 15.75 11.0729 16.6198C10.1979 17.4948 9.36979 18.4063 8.58333 19.3594C7.79687 20.3125 7.05729 21.3021 6.36979 22.3281C5.68229 23.349 5.04688 24.4062 4.46354 25.4948C3.88021 26.5833 3.34896 27.6979 2.875 28.8333C2.40104 29.974 1.98437 31.1354 1.625 32.3125C1.26563 33.4948 0.963541 34.6875 0.723958 35.901C0.484374 37.1094 0.302082 38.3281 0.182292 39.5521C0.0572917 40.7812 0 42.0104 0 43.2448C0 44.4792 0.0572927 45.7083 0.177083 46.9375C0.302083 48.1615 0.484374 49.3802 0.723958 50.5885C0.963541 51.8021 1.26563 52.9948 1.625 54.1771C1.98437 55.3542 2.40104 56.5156 2.875 57.6563C3.34896 58.7917 3.88021 59.9063 4.46354 60.9948C5.04688 62.0833 5.68229 63.1406 6.36979 64.1667C7.05729 65.1875 7.79687 66.1771 8.58333 67.1302C9.36458 68.0833 10.1979 69 11.0729 69.8698C11.9479 70.7448 12.8646 71.5677 13.8229 72.3542C14.7813 73.1354 15.776 73.8698 16.8073 74.5521C17.8333 75.2396 18.8958 75.8698 19.9896 76.4531C21.0833 77.0313 22.1979 77.5625 23.3438 78.0313C24.4896 78.5052 25.651 78.9167 26.8385 79.276C28.0208 79.6354 29.224 79.9323 30.4375 80.1771C31.651 80.4167 32.875 80.5938 34.1094 80.7188C35.3438 80.8385 36.5781 80.8958 37.8177 80.8958H264.724C265.964 80.8958 267.198 80.8385 268.432 80.7188C269.667 80.5938 270.891 80.4167 272.104 80.1719C273.318 79.9323 274.516 79.6354 275.703 79.276C276.891 78.9167 278.052 78.5052 279.198 78.0313C280.344 77.5573 281.458 77.0313 282.552 76.4531C283.646 75.8698 284.708 75.2396 285.734 74.5521C286.766 73.8646 287.76 73.1354 288.719 72.349C289.672 71.5677 290.589 70.7396 291.469 69.8698C292.344 68.9948 293.172 68.0833 293.958 67.1302C294.745 66.1771 295.484 65.1875 296.172 64.1615C296.859 63.1406 297.495 62.0833 298.078 60.9948C298.661 59.9063 299.193 58.7917 299.667 57.6563C300.141 56.5156 300.557 55.3542 300.917 54.1771C301.276 52.9948 301.573 51.8021 301.818 50.5885C302.057 49.3802 302.24 48.1615 302.359 46.9375C302.484 45.7083 302.542 44.4792 302.542 43.2448C302.542 42.0104 302.484 40.7812 302.359 39.5521C302.24 38.3281 302.057 37.1094 301.818 35.901C301.573 34.6875 301.276 33.4948 300.917 32.3125C300.557 31.1354 300.141 29.974 299.667 28.8385C299.188 27.6979 298.661 26.5833 298.078 25.4948C297.495 24.4062 296.859 23.3542 296.167 22.3281C295.479 21.3021 294.745 20.3125 293.958 19.3594C293.172 18.4063 292.344 17.4948 291.464 16.6198C290.589 15.75 289.672 14.9219 288.714 14.1406C287.76 13.3594 286.766 12.625 285.734 11.9375C284.703 11.2552 283.646 10.6198 282.552 10.0417C281.458 9.45833 280.339 8.93229 279.198 8.45833C278.052 7.98958 276.885 7.57292 275.703 7.21354C274.516 6.85938 273.318 6.55729 272.104 6.31771C270.885 6.07813 269.667 5.89583 268.432 5.77604C267.198 5.65625 265.964 5.59375 264.724 5.59375Z" fill="var(--fill-0, #FFB5C9)"/>
<path id="Vector_2" d="M264.724 0H37.8177C36.5781 0 35.3438 0.0624997 34.1094 0.182292C32.875 0.302084 31.651 0.484374 30.4375 0.723958C29.224 0.963541 28.0208 1.26563 26.8385 1.61979C25.651 1.97917 24.4896 2.39583 23.3438 2.86458C22.1979 3.33854 21.0833 3.86458 19.9896 4.44792C18.8958 5.02604 17.8333 5.66146 16.8073 6.34375C15.776 7.03125 14.7813 7.76563 13.8229 8.54688C12.8646 9.32813 11.9479 10.1563 11.0729 11.0313C10.1979 11.901 9.36458 12.8125 8.58333 13.7656C7.79687 14.7188 7.05729 15.7083 6.36979 16.7344C5.68229 17.7604 5.04688 18.8177 4.46354 19.9063C3.88021 20.9948 3.34896 22.1042 2.875 23.2448C2.40104 24.3854 1.98437 25.5417 1.625 26.724C1.26563 27.9062 0.963541 29.099 0.723958 30.3073C0.484374 31.5208 0.302083 32.7344 0.177083 33.9635C0.0572927 35.1927 0 36.4219 0 37.6563C0 38.8854 0.0572917 40.1198 0.182292 41.3438C0.302082 42.5729 0.484374 43.7917 0.723958 45C0.963541 46.2083 1.26563 47.4063 1.625 48.5833C1.98437 49.7656 2.40104 50.9219 2.875 52.0625C3.34896 53.2031 3.88021 54.3177 4.46354 55.4063C5.04688 56.4896 5.68229 57.5469 6.36979 58.5729C7.05729 59.599 7.79687 60.5885 8.58333 61.5417C9.36979 62.4948 10.1979 63.4063 11.0729 64.276C11.9531 65.151 12.8698 65.9792 13.8229 66.7604C14.7813 67.5417 15.776 68.276 16.8073 68.9583C17.8333 69.6458 18.8958 70.2813 19.9896 70.8594C21.0833 71.4427 22.1979 71.9688 23.3438 72.4375C24.4896 72.9115 25.651 73.3281 26.8385 73.6823C28.026 74.0417 29.224 74.3438 30.4375 74.5833C31.651 74.8229 32.875 75.0052 34.1094 75.125C35.3438 75.2448 36.5781 75.3073 37.8177 75.3073H264.724C265.964 75.3073 267.198 75.2448 268.432 75.125C269.667 75.0052 270.885 74.8229 272.104 74.5833C273.318 74.3385 274.516 74.0417 275.703 73.6823C276.885 73.3281 278.052 72.9115 279.198 72.4375C280.339 71.9688 281.458 71.4427 282.552 70.8594C283.646 70.276 284.703 69.6458 285.734 68.9583C286.766 68.276 287.76 67.5417 288.714 66.7604C289.672 65.9792 290.589 65.151 291.464 64.276C292.344 63.4063 293.172 62.4948 293.958 61.5417C294.745 60.5885 295.479 59.599 296.167 58.5729C296.859 57.5469 297.495 56.4896 298.078 55.401C298.661 54.3177 299.188 53.2031 299.667 52.0625C300.141 50.9219 300.557 49.7656 300.917 48.5833C301.276 47.4063 301.573 46.2083 301.818 45C302.057 43.7917 302.24 42.5729 302.359 41.3438C302.484 40.1198 302.542 38.8854 302.542 37.6563C302.542 36.4219 302.484 35.1927 302.359 33.9635C302.24 32.7344 302.057 31.5208 301.818 30.3073C301.573 29.099 301.276 27.9062 300.917 26.724C300.557 25.5469 300.141 24.3854 299.667 23.2448C299.193 22.1042 298.661 20.9948 298.078 19.9063C297.495 18.8177 296.859 17.7604 296.172 16.7344C295.484 15.7083 294.745 14.7188 293.958 13.7656C293.172 12.8125 292.344 11.901 291.469 11.0313C290.589 10.1563 289.672 9.33333 288.719 8.54688C287.76 7.76563 286.766 7.03125 285.734 6.34896C284.708 5.66146 283.646 5.03125 282.552 4.44792C281.458 3.86458 280.344 3.33854 279.198 2.86979C278.052 2.39583 276.891 1.97917 275.703 1.625C274.516 1.26563 273.318 0.963541 272.104 0.723958C270.891 0.484374 269.667 0.302084 268.432 0.182292C267.198 0.0624997 265.964 0 264.724 0Z" fill="var(--fill-0, #FFC0D7)"/>
<path id="Vector_3" d="M288.964 22.75C273.552 4.36455 263.839 13.9635 263.839 13.9635C256.146 21.4791 307.026 44.2916 288.964 22.75Z" fill="var(--fill-0, #FBFFFF)"/>
<path id="Vector_4" d="M261.583 9.05726C260.151 8.84372 247.813 7.8281 252.938 12.2552C258.063 16.6823 267.109 9.86455 261.583 9.05726Z" fill="var(--fill-0, #FBFFFF)"/>
</g>
</svg>
