<svg preserveAspectRatio="none" width="100%" height="100%" overflow="visible" style="display: block;" viewBox="0 0 307 255" fill="none" xmlns="http://www.w3.org/2000/svg">
<g id="Group 20">
<path id="Vector" d="M294.208 38.3075V25.5679H281.417V12.8231H243.042V0.0834961H115.125V12.8231H102.333V25.5679H89.5417V38.3075H76.75V51.0522H63.9583V63.7918H51.1667V76.5314H38.375V89.2762H25.5833V102.016H12.7917V127.5H0V229.432H12.7917V242.172H25.5833V254.917H217.458V242.172H230.25V229.432H243.042V216.693H255.833V191.209H268.625V165.724H281.417V140.24H294.208V114.761H307V38.3075H294.208Z" fill="var(--fill-0, #BC1F3C)"/>
<path id="Vector_2" d="M140.708 229.432H153.5V242.172H140.708V229.432Z" fill="var(--fill-0, #FF6B7F)"/>
<path id="Vector_3" d="M153.5 216.693H166.292V229.432H153.5V216.693Z" fill="var(--fill-0, #FF6B7F)"/>
<path id="Vector_4" d="M268.625 152.984H281.417V165.724H268.625V152.984Z" fill="var(--fill-0, #BC1F3C)"/>
<path id="Vector_5" d="M281.417 127.5H294.208V140.24H281.417V127.5Z" fill="var(--fill-0, #BC1F3C)"/>
<path id="Vector_6" d="M191.792 241.688H205.125V255H191.792V241.688Z" fill="var(--fill-0, black)"/>
<path id="Vector_7" d="M191.875 242.172H204.667V254.917H191.875V242.172Z" fill="var(--fill-0, #FFC384)"/>
<path id="Vector_8" d="M178.458 241.688H193.125V255H178.458V241.688Z" fill="var(--fill-0, black)"/>
<path id="Vector_9" d="M179.083 242.172H191.875V254.917H179.083V242.172Z" fill="var(--fill-0, #FFC384)"/>
<path id="Vector_10" d="M165.125 241.688H179.792V255H165.125V241.688Z" fill="var(--fill-0, black)"/>
<path id="Vector_11" d="M166.292 242.172H179.084V254.917H166.292V242.172Z" fill="var(--fill-0, #FFC384)"/>
<path id="Vector_12" d="M153.125 241.688H166.459V255H153.125V241.688Z" fill="var(--fill-0, black)"/>
<path id="Vector_13" d="M153.5 242.172H166.292V254.917H153.5V242.172Z" fill="var(--fill-0, #FFC384)"/>
<path id="Vector_14" d="M191.875 229.432H204.667V242.172H191.875V229.432Z" fill="var(--fill-0, #FFC384)"/>
<path id="Vector_15" d="M166.292 229.432H179.083V242.172H166.292V229.432Z" fill="var(--fill-0, #FFC384)"/>
<path id="Vector_16" d="M191.875 216.693H204.667V229.432H191.875V216.693Z" fill="var(--fill-0, #FFC384)"/>
<path id="Vector_17" d="M166.292 216.693H179.083V229.432H166.292V216.693Z" fill="var(--fill-0, #FFC384)"/>
<path id="Vector_18" d="M204.667 203.948H217.458V216.693H204.667V203.948Z" fill="var(--fill-0, #FFC384)"/>
<path id="Vector_19" d="M166.292 203.948H179.083V216.693H166.292V203.948Z" fill="var(--fill-0, #FFC384)"/>
<path id="Vector_20" d="M102.333 203.948H115.125V216.693H102.333V203.948Z" fill="var(--fill-0, #FFC384)"/>
<path id="Vector_21" d="M89.5417 203.948H102.333V216.693H89.5417V203.948Z" fill="var(--fill-0, #FFC384)"/>
<path id="Vector_22" d="M76.7502 203.948H89.5419V216.693H76.7502V203.948Z" fill="var(--fill-0, #FFC384)"/>
<path id="Vector_23" d="M166.292 191.208H179.083V203.948H166.292V191.208Z" fill="var(--fill-0, #FFC384)"/>
<path id="Vector_24" d="M140.708 191.208H153.5V203.948H140.708V191.208Z" fill="var(--fill-0, #FFC384)"/>
<path id="Vector_25" d="M115.125 191.208H127.917V203.948H115.125V191.208Z" fill="var(--fill-0, #FFC384)"/>
<path id="Vector_26" d="M63.9585 191.208H76.7502V203.948H63.9585V191.208Z" fill="var(--fill-0, #FFC384)"/>
<path id="Vector_27" d="M140.708 178.463H153.5V191.208H140.708V178.463Z" fill="var(--fill-0, #FFC384)"/>
<path id="Vector_28" d="M89.5417 178.463H102.333V191.208H89.5417V178.463Z" fill="var(--fill-0, #FFC384)"/>
<path id="Vector_29" d="M51.1667 178.463H63.9584V191.208H51.1667V178.463Z" fill="var(--fill-0, #FFC384)"/>
<path id="Vector_30" d="M140.708 165.724H153.5V178.464H140.708V165.724Z" fill="var(--fill-0, #FFC384)"/>
<path id="Vector_31" d="M89.5417 165.724H102.333V178.464H89.5417V165.724Z" fill="var(--fill-0, #FFC384)"/>
<path id="Vector_32" d="M51.1667 165.724H63.9584V178.464H51.1667V165.724Z" fill="var(--fill-0, #FFC384)"/>
<path id="Vector_33" d="M166.292 152.984H179.083V165.724H166.292V152.984Z" fill="var(--fill-0, #FFC384)"/>
<path id="Vector_34" d="M140.708 152.984H153.5V165.724H140.708V152.984Z" fill="var(--fill-0, #FFC384)"/>
<path id="Vector_35" d="M89.5417 152.984H102.333V165.724H89.5417V152.984Z" fill="var(--fill-0, #FFC384)"/>
<path id="Vector_36" d="M51.1667 152.984H63.9584V165.724H51.1667V152.984Z" fill="var(--fill-0, #FFC384)"/>
<path id="Vector_37" d="M166.292 140.24H179.083V152.985H166.292V140.24Z" fill="var(--fill-0, #FFC384)"/>
<path id="Vector_38" d="M127.917 140.24H140.708V152.985H127.917V140.24Z" fill="var(--fill-0, #FFC384)"/>
<path id="Vector_39" d="M115.125 140.24H127.917V152.985H115.125V140.24Z" fill="var(--fill-0, #FFC384)"/>
<path id="Vector_40" d="M102.333 140.24H115.125V152.985H102.333V140.24Z" fill="var(--fill-0, #FFC384)"/>
<path id="Vector_41" d="M63.9585 140.24H76.7502V152.985H63.9585V140.24Z" fill="var(--fill-0, #FFC384)"/>
<path id="Vector_42" d="M153.5 127.5H166.292V140.24H153.5V127.5Z" fill="var(--fill-0, #FFC384)"/>
<path id="Vector_43" d="M63.9585 127.5H76.7502V140.24H63.9585V127.5Z" fill="var(--fill-0, #FFC384)"/>
<path id="Vector_44" d="M140.708 114.76H153.5V127.5H140.708V114.76Z" fill="var(--fill-0, #FFC384)"/>
<path id="Vector_45" d="M127.917 114.76H140.708V127.5H127.917V114.76Z" fill="var(--fill-0, #FFC384)"/>
<path id="Vector_46" d="M89.5417 114.76H102.333V127.5H89.5417V114.76Z" fill="var(--fill-0, #FFC384)"/>
<path id="Vector_47" d="M76.7502 114.76H89.5419V127.5H76.7502V114.76Z" fill="var(--fill-0, #FFC384)"/>
<path id="Vector_48" d="M293.125 101.688H307V115.021H293.125V101.688Z" fill="var(--fill-0, black)"/>
<path id="Vector_49" d="M294.208 102.016H307V114.76H294.208V102.016Z" fill="var(--fill-0, #BC1F3C)"/>
<path id="Vector_50" d="M179.083 229.432H191.875V242.172H179.083V229.432Z" fill="var(--fill-0, #FFC384)"/>
<path id="Vector_51" d="M179.083 216.693H191.875V229.432H179.083V216.693Z" fill="var(--fill-0, #FFC384)"/>
<path id="Vector_52" d="M115.125 216.693H127.917V229.432H115.125V216.693Z" fill="var(--fill-0, #FFDFBE)"/>
<path id="Vector_53" d="M102.333 216.693H115.125V229.432H102.333V216.693Z" fill="var(--fill-0, #FFDFBE)"/>
<path id="Vector_54" d="M89.5417 216.693H102.333V229.432H89.5417V216.693Z" fill="var(--fill-0, #FFDFBE)"/>
<path id="Vector_55" d="M76.7502 216.693H89.5419V229.432H76.7502V216.693Z" fill="var(--fill-0, #FFDFBE)"/>
<path id="Vector_56" d="M63.9585 216.693H76.7502V229.432H63.9585V216.693Z" fill="var(--fill-0, #FFDFBE)"/>
<path id="Vector_57" d="M191.875 203.948H204.667V216.693H191.875V203.948Z" fill="var(--fill-0, #FFC384)"/>
<path id="Vector_58" d="M179.083 203.948H191.875V216.693H179.083V203.948Z" fill="var(--fill-0, #FFDFBE)"/>
<path id="Vector_59" d="M127.917 203.948H140.708V216.693H127.917V203.948Z" fill="var(--fill-0, #FFDFBE)"/>
<path id="Vector_60" d="M115.125 203.948H127.917V216.693H115.125V203.948Z" fill="var(--fill-0, #FFDFBE)"/>
<path id="Vector_61" d="M63.9585 203.948H76.7502V216.693H63.9585V203.948Z" fill="var(--fill-0, #FFDFBE)"/>
<path id="Vector_62" d="M51.1667 203.948H63.9584V216.693H51.1667V203.948Z" fill="var(--fill-0, #FFDFBE)"/>
<path id="Vector_63" d="M191.875 191.208H204.667V203.948H191.875V191.208Z" fill="var(--fill-0, #FFDFBE)"/>
<path id="Vector_64" d="M179.083 191.208H191.875V203.948H179.083V191.208Z" fill="var(--fill-0, #FFDFBE)"/>
<path id="Vector_65" d="M127.917 191.208H140.708V203.948H127.917V191.208Z" fill="var(--fill-0, #FFDFBE)"/>
<path id="Vector_66" d="M51.1667 191.208H63.9584V203.948H51.1667V191.208Z" fill="var(--fill-0, #FFDFBE)"/>
<path id="Vector_67" d="M38.3752 191.208H51.1669V203.948H38.3752V191.208Z" fill="var(--fill-0, #FFDFBE)"/>
<path id="Vector_68" d="M191.875 178.463H204.667V191.208H191.875V178.463Z" fill="var(--fill-0, #FFDFBE)"/>
<path id="Vector_69" d="M179.083 178.463H191.875V191.208H179.083V178.463Z" fill="var(--fill-0, #FFDFBE)"/>
<path id="Vector_70" d="M127.917 178.463H140.708V191.208H127.917V178.463Z" fill="var(--fill-0, #FFDFBE)"/>
<path id="Vector_71" d="M102.333 178.463H115.125V191.208H102.333V178.463Z" fill="var(--fill-0, #FFDFBE)"/>
<path id="Vector_72" d="M38.3752 178.463H51.1669V191.208H38.3752V178.463Z" fill="var(--fill-0, #FFDFBE)"/>
<path id="Vector_73" d="M25.5835 178.463H38.3752V191.208H25.5835V178.463Z" fill="var(--fill-0, #FFC384)"/>
<path id="Vector_74" d="M191.875 165.724H204.667V178.464H191.875V165.724Z" fill="var(--fill-0, #FFDFBE)"/>
<path id="Vector_75" d="M179.083 165.724H191.875V178.464H179.083V165.724Z" fill="var(--fill-0, #FFDFBE)"/>
<path id="Vector_76" d="M127.917 165.724H140.708V178.464H127.917V165.724Z" fill="var(--fill-0, #FFDFBE)"/>
<path id="Vector_77" d="M115.125 165.724H127.917V178.464H115.125V165.724Z" fill="var(--fill-0, #FFDFBE)"/>
<path id="Vector_78" d="M102.333 165.724H115.125V178.464H102.333V165.724Z" fill="var(--fill-0, #FFDFBE)"/>
<path id="Vector_79" d="M38.3752 165.724H51.1669V178.464H38.3752V165.724Z" fill="var(--fill-0, #FFDFBE)"/>
<path id="Vector_80" d="M25.5835 165.724H38.3752V178.464H25.5835V165.724Z" fill="var(--fill-0, #FFDFBE)"/>
<path id="Vector_81" d="M191.875 152.984H204.667V165.724H191.875V152.984Z" fill="var(--fill-0, #FFDFBE)"/>
<path id="Vector_82" d="M179.083 152.984H191.875V165.724H179.083V152.984Z" fill="var(--fill-0, #FFDFBE)"/>
<path id="Vector_83" d="M127.917 152.984H140.708V165.724H127.917V152.984Z" fill="var(--fill-0, #FFC384)"/>
<path id="Vector_84" d="M115.125 152.984H127.917V165.724H115.125V152.984Z" fill="var(--fill-0, #FFDFBE)"/>
<path id="Vector_85" d="M102.333 152.984H115.125V165.724H102.333V152.984Z" fill="var(--fill-0, #FFC384)"/>
<path id="Vector_86" d="M38.3752 152.984H51.1669V165.724H38.3752V152.984Z" fill="var(--fill-0, #FFDFBE)"/>
<path id="Vector_87" d="M25.5835 152.984H38.3752V165.724H25.5835V152.984Z" fill="var(--fill-0, #FFDFBE)"/>
<path id="Vector_88" d="M179.083 140.24H191.875V152.985H179.083V140.24Z" fill="var(--fill-0, #FFDFBE)"/>
<path id="Vector_89" d="M51.1667 140.24H63.9584V152.985H51.1667V140.24Z" fill="var(--fill-0, #FFDFBE)"/>
<path id="Vector_90" d="M38.3752 140.24H51.1669V152.985H38.3752V140.24Z" fill="var(--fill-0, #FFDFBE)"/>
<path id="Vector_91" d="M179.083 127.5H191.875V140.24H179.083V127.5Z" fill="var(--fill-0, #FFDFBE)"/>
<path id="Vector_92" d="M166.292 127.5H179.083V140.24H166.292V127.5Z" fill="var(--fill-0, #FFDFBE)"/>
<path id="Vector_93" d="M51.1667 127.5H63.9584V140.24H51.1667V127.5Z" fill="var(--fill-0, #FFDFBE)"/>
<path id="Vector_94" d="M38.3752 127.5H51.1669V140.24H38.3752V127.5Z" fill="var(--fill-0, #FFC384)"/>
<path id="Vector_95" d="M166.292 114.76H179.083V127.5H166.292V114.76Z" fill="var(--fill-0, #FFDFBE)"/>
<path id="Vector_96" d="M153.5 114.76H166.292V127.5H153.5V114.76Z" fill="var(--fill-0, #FFDFBE)"/>
<path id="Vector_97" d="M63.9585 114.76H76.7502V127.5H63.9585V114.76Z" fill="var(--fill-0, #FFDFBE)"/>
<path id="Vector_98" d="M51.1667 114.76H63.9584V127.5H51.1667V114.76Z" fill="var(--fill-0, #FFC384)"/>
<path id="Vector_99" d="M179.083 229.432H191.875V242.172H179.083V229.432Z" fill="var(--fill-0, #FFDFBE)" fill-opacity="0.5"/>
<path id="Vector_100" d="M179.083 216.693H191.875V229.432H179.083V216.693Z" fill="var(--fill-0, #FFDFBE)" fill-opacity="0.5"/>
<path id="Vector_101" d="M191.875 203.948H204.667V216.693H191.875V203.948Z" fill="var(--fill-0, #FFDFBE)" fill-opacity="0.5"/>
<path id="Vector_102" d="M25.5835 178.463H38.3752V191.208H25.5835V178.463Z" fill="var(--fill-0, #FFDFBE)" fill-opacity="0.5"/>
<path id="Vector_103" d="M127.917 152.984H140.708V165.724H127.917V152.984Z" fill="var(--fill-0, #FFDFBE)" fill-opacity="0.5"/>
<path id="Vector_104" d="M102.333 152.984H115.125V165.724H102.333V152.984Z" fill="var(--fill-0, #FFDFBE)" fill-opacity="0.5"/>
<path id="Vector_105" d="M38.3752 127.5H51.1669V140.24H38.3752V127.5Z" fill="var(--fill-0, #FFDFBE)" fill-opacity="0.5"/>
<path id="Vector_106" d="M51.1667 114.76H63.9584V127.5H51.1667V114.76Z" fill="var(--fill-0, #FFDFBE)" fill-opacity="0.5"/>
<path id="Vector_107" d="M153.5 102.016H166.292V114.76H153.5V102.016Z" fill="var(--fill-0, #FFDFBE)"/>
<path id="Vector_108" d="M140.708 102.016H153.5V114.76H140.708V102.016Z" fill="var(--fill-0, #FFDFBE)"/>
<path id="Vector_109" d="M127.917 102.016H140.708V114.76H127.917V102.016Z" fill="var(--fill-0, #FFDFBE)"/>
<path id="Vector_110" d="M115.125 102.016H127.917V114.76H115.125V102.016Z" fill="var(--fill-0, #FFDFBE)"/>
<path id="Vector_111" d="M102.333 102.016H115.125V114.76H102.333V102.016Z" fill="var(--fill-0, #FFDFBE)"/>
<path id="Vector_112" d="M89.5417 102.016H102.333V114.76H89.5417V102.016Z" fill="var(--fill-0, #FFDFBE)"/>
<path id="Vector_113" d="M76.7502 102.016H89.5419V114.76H76.7502V102.016Z" fill="var(--fill-0, #FFDFBE)"/>
<path id="Vector_114" d="M63.9585 102.016H76.7502V114.76H63.9585V102.016Z" fill="var(--fill-0, #FFDFBE)"/>
<path id="Vector_115" d="M139.792 241.688H154.458V255H139.792V241.688Z" fill="var(--fill-0, black)"/>
<path id="Vector_116" d="M140.708 242.172H153.5V254.917H140.708V242.172Z" fill="var(--fill-0, #FF6B7F)"/>
<path id="Vector_117" d="M127.792 241.688H141.125V255H127.792V241.688Z" fill="var(--fill-0, black)"/>
<path id="Vector_118" d="M127.917 242.172H140.708V254.917H127.917V242.172Z" fill="var(--fill-0, #FF6B7F)"/>
<path id="Vector_119" d="M114.458 241.688H129.125V255H114.458V241.688Z" fill="var(--fill-0, black)"/>
<path id="Vector_120" d="M115.125 242.172H127.917V254.917H115.125V242.172Z" fill="var(--fill-0, #FF6B7F)"/>
<path id="Vector_121" d="M101.125 241.688H115.792V255H101.125V241.688Z" fill="var(--fill-0, black)"/>
<path id="Vector_122" d="M102.333 242.172H115.125V254.917H102.333V242.172Z" fill="var(--fill-0, #FF6B7F)"/>
<path id="Vector_123" d="M89.1252 241.688H102.459V255H89.1252V241.688Z" fill="var(--fill-0, black)"/>
<path id="Vector_124" d="M89.542 242.172H102.334V254.917H89.542V242.172Z" fill="var(--fill-0, #FF6B7F)"/>
<path id="Vector_125" d="M75.7917 241.688H90.4584V255H75.7917V241.688Z" fill="var(--fill-0, black)"/>
<path id="Vector_126" d="M76.75 242.172H89.5417V254.917H76.75V242.172Z" fill="var(--fill-0, #FF6B7F)"/>
<path id="Vector_127" d="M63.7917 241.688H77.1251V255H63.7917V241.688Z" fill="var(--fill-0, black)"/>
<path id="Vector_128" d="M63.9585 242.172H76.7502V254.917H63.9585V242.172Z" fill="var(--fill-0, #FF6B7F)"/>
<path id="Vector_129" d="M50.4585 241.688H65.1252V255H50.4585V241.688Z" fill="var(--fill-0, black)"/>
<path id="Vector_130" d="M51.1667 242.172H63.9584V254.917H51.1667V242.172Z" fill="var(--fill-0, #FF6B7F)"/>
<path id="Vector_131" d="M37.1252 241.688H51.7919V255H37.1252V241.688Z" fill="var(--fill-0, black)"/>
<path id="Vector_132" d="M38.3752 242.172H51.1669V254.917H38.3752V242.172Z" fill="var(--fill-0, #FF6B7F)"/>
<path id="Vector_133" d="M25.125 241.688H38.4583V255H25.125V241.688Z" fill="var(--fill-0, black)"/>
<path id="Vector_134" d="M25.5835 242.172H38.3752V254.917H25.5835V242.172Z" fill="var(--fill-0, #FF6B7F)"/>
<path id="Vector_135" d="M153.5 229.432H166.292V242.172H153.5V229.432Z" fill="var(--fill-0, #FF6B7F)"/>
<path id="Vector_136" d="M38.3752 229.432H51.1669V242.172H38.3752V229.432Z" fill="var(--fill-0, #FF6B7F)"/>
<path id="Vector_137" d="M25.5835 229.432H38.3752V242.172H25.5835V229.432Z" fill="var(--fill-0, #FF90A9)"/>
<path id="Vector_138" d="M12.7917 229.432H25.5834V242.172H12.7917V229.432Z" fill="var(--fill-0, #FF6B7F)"/>
<path id="Vector_139" d="M12.7917 216.693H25.5834V229.432H12.7917V216.693Z" fill="var(--fill-0, #FF90A9)"/>
<path id="Vector_140" d="M0 216.354H13.125V229.688H0V216.354Z" fill="var(--fill-0, black)"/>
<path id="Vector_141" d="M0 216.693H12.7917V229.432H0V216.693Z" fill="var(--fill-0, #FF90A9)"/>
<path id="Vector_142" d="M12.7917 203.948H25.5834V216.693H12.7917V203.948Z" fill="var(--fill-0, #FF6B7F)"/>
<path id="Vector_143" d="M0 203.021H13.125V217.688H0V203.021Z" fill="var(--fill-0, black)"/>
<path id="Vector_144" d="M0 203.948H12.7917V216.693H0V203.948Z" fill="var(--fill-0, #FF90A9)"/>
<path id="Vector_145" d="M0 191.021H13.125V204.354H0V191.021Z" fill="var(--fill-0, black)"/>
<path id="Vector_146" d="M0 191.208H12.7917V203.948H0V191.208Z" fill="var(--fill-0, #FF90A9)"/>
<path id="Vector_147" d="M0 177.688H13.125V192.354H0V177.688Z" fill="var(--fill-0, black)"/>
<path id="Vector_148" d="M0 178.463H12.7917V191.208H0V178.463Z" fill="var(--fill-0, #FF90A9)"/>
<path id="Vector_149" d="M0 165.688H13.125V179.021H0V165.688Z" fill="var(--fill-0, black)"/>
<path id="Vector_150" d="M0 165.724H12.7917V178.464H0V165.724Z" fill="var(--fill-0, #FF90A9)"/>
<path id="Vector_151" d="M0 152.354H13.125V167.021H0V152.354Z" fill="var(--fill-0, black)"/>
<path id="Vector_152" d="M0 152.984H12.7917V165.724H0V152.984Z" fill="var(--fill-0, #FF90A9)"/>
<path id="Vector_153" d="M0 139.021H13.125V153.688H0V139.021Z" fill="var(--fill-0, black)"/>
<path id="Vector_154" d="M0 140.24H12.7917V152.985H0V140.24Z" fill="var(--fill-0, #FF90A9)"/>
<path id="Vector_155" d="M0 127.021H13.125V140.354H0V127.021Z" fill="var(--fill-0, black)"/>
<path id="Vector_156" d="M0 127.5H12.7917V140.24H0V127.5Z" fill="var(--fill-0, #FF90A9)"/>
<path id="Vector_157" d="M12.7917 114.76H25.5834V127.5H12.7917V114.76Z" fill="var(--fill-0, #FF90A9)"/>
<path id="Vector_158" d="M25.5835 102.016H38.3752V114.76H25.5835V102.016Z" fill="var(--fill-0, #FF90A9)"/>
<path id="Vector_159" d="M12.7917 102.016H25.5834V114.76H12.7917V102.016Z" fill="var(--fill-0, #FF6B7F)"/>
<path id="Vector_160" d="M293.125 88.354H307V103.021H293.125V88.354Z" fill="var(--fill-0, black)"/>
<path id="Vector_161" d="M294.208 89.2759H307V102.015H294.208V89.2759Z" fill="var(--fill-0, #FF6B7F)"/>
<path id="Vector_162" d="M293.125 76.354H307V89.6873H293.125V76.354Z" fill="var(--fill-0, black)"/>
<path id="Vector_163" d="M294.208 76.5312H307V89.276H294.208V76.5312Z" fill="var(--fill-0, #FF6B7F)"/>
<path id="Vector_164" d="M217.458 76.5312H230.25V89.276H217.458V76.5312Z" fill="var(--fill-0, #FF6B7F)"/>
<path id="Vector_165" d="M203.792 241.688H218.458V255H203.792V241.688Z" fill="var(--fill-0, black)"/>
<path id="Vector_166" d="M204.667 242.172H217.458V254.917H204.667V242.172Z" fill="var(--fill-0, #FF6B7F)"/>
<path id="Vector_167" d="M217.458 229.432H230.25V242.172H217.458V229.432Z" fill="var(--fill-0, #FF6B7F)"/>
<path id="Vector_168" d="M204.667 229.432H217.458V242.172H204.667V229.432Z" fill="var(--fill-0, #FF6B7F)"/>
<path id="Vector_169" d="M217.458 216.693H230.25V229.432H217.458V216.693Z" fill="var(--fill-0, #FF6B7F)"/>
<path id="Vector_170" d="M204.667 216.693H217.458V229.432H204.667V216.693Z" fill="var(--fill-0, #FF6B7F)"/>
<path id="Vector_171" d="M230.25 203.948H243.042V216.693H230.25V203.948Z" fill="var(--fill-0, #FF6B7F)"/>
<path id="Vector_172" d="M230.25 191.208H243.042V203.948H230.25V191.208Z" fill="var(--fill-0, #FF6B7F)"/>
<path id="Vector_173" d="M230.25 178.463H243.042V191.208H230.25V178.463Z" fill="var(--fill-0, #FF6B7F)"/>
<path id="Vector_174" d="M230.25 165.724H243.042V178.464H230.25V165.724Z" fill="var(--fill-0, #FF6B7F)"/>
<path id="Vector_175" d="M230.25 152.984H243.042V165.724H230.25V152.984Z" fill="var(--fill-0, #FF6B7F)"/>
<path id="Vector_176" d="M217.458 152.984H230.25V165.724H217.458V152.984Z" fill="var(--fill-0, #FF6B7F)"/>
<path id="Vector_177" d="M217.458 140.24H230.25V152.985H217.458V140.24Z" fill="var(--fill-0, #FF6B7F)"/>
<path id="Vector_178" d="M217.458 127.5H230.25V140.24H217.458V127.5Z" fill="var(--fill-0, #FF6B7F)"/>
<path id="Vector_179" d="M217.458 114.76H230.25V127.5H217.458V114.76Z" fill="var(--fill-0, #FF6B7F)"/>
<path id="Vector_180" d="M204.667 114.76H217.458V127.5H204.667V114.76Z" fill="var(--fill-0, #FF6B7F)"/>
<path id="Vector_181" d="M204.667 102.016H217.458V114.76H204.667V102.016Z" fill="var(--fill-0, #FF6B7F)"/>
<path id="Vector_182" d="M191.875 102.016H204.667V114.76H191.875V102.016Z" fill="var(--fill-0, #FF6B7F)"/>
<path id="Vector_183" d="M191.875 89.2759H204.667V102.015H191.875V89.2759Z" fill="var(--fill-0, #FF6B7F)"/>
<path id="Vector_184" d="M179.083 89.2759H191.875V102.015H179.083V89.2759Z" fill="var(--fill-0, #FF6B7F)"/>
<path id="Vector_185" d="M166.292 76.5312H179.083V89.276H166.292V76.5312Z" fill="var(--fill-0, #FF6B7F)"/>
<path id="Vector_186" d="M127.917 229.432H140.708V242.172H127.917V229.432Z" fill="var(--fill-0, #FF6B7F)"/>
<path id="Vector_187" d="M115.125 229.432H127.917V242.172H115.125V229.432Z" fill="var(--fill-0, #FF6B7F)"/>
<path id="Vector_188" d="M102.333 229.432H115.125V242.172H102.333V229.432Z" fill="var(--fill-0, #FF6B7F)"/>
<path id="Vector_189" d="M89.5417 229.432H102.333V242.172H89.5417V229.432Z" fill="var(--fill-0, #FF6B7F)"/>
<path id="Vector_190" d="M76.7502 229.432H89.5419V242.172H76.7502V229.432Z" fill="var(--fill-0, #FF6B7F)"/>
<path id="Vector_191" d="M63.9585 229.432H76.7502V242.172H63.9585V229.432Z" fill="var(--fill-0, #FF6B7F)"/>
<path id="Vector_192" d="M51.1667 229.432H63.9584V242.172H51.1667V229.432Z" fill="var(--fill-0, #FF6B7F)"/>
<path id="Vector_193" d="M140.708 216.693H153.5V229.432H140.708V216.693Z" fill="var(--fill-0, #FF6B7F)"/>
<path id="Vector_194" d="M127.917 216.693H140.708V229.432H127.917V216.693Z" fill="var(--fill-0, #FF6B7F)"/>
<path id="Vector_195" d="M51.1667 216.693H63.9584V229.432H51.1667V216.693Z" fill="var(--fill-0, #FF6B7F)"/>
<path id="Vector_196" d="M38.3752 216.693H51.1669V229.432H38.3752V216.693Z" fill="var(--fill-0, #FF6B7F)"/>
<path id="Vector_197" d="M25.5835 216.693H38.3752V229.432H25.5835V216.693Z" fill="var(--fill-0, #FF6B7F)"/>
<path id="Vector_198" d="M217.458 203.948H230.25V216.693H217.458V203.948Z" fill="var(--fill-0, #FF6B7F)"/>
<path id="Vector_199" d="M153.5 203.948H166.292V216.693H153.5V203.948Z" fill="var(--fill-0, #FF6B7F)"/>
<path id="Vector_200" d="M140.708 203.948H153.5V216.693H140.708V203.948Z" fill="var(--fill-0, #FF6B7F)"/>
<path id="Vector_201" d="M38.3752 203.948H51.1669V216.693H38.3752V203.948Z" fill="var(--fill-0, #FF6B7F)"/>
<path id="Vector_202" d="M25.5835 203.948H38.3752V216.693H25.5835V203.948Z" fill="var(--fill-0, #FF6B7F)"/>
<path id="Vector_203" d="M217.458 191.208H230.25V203.948H217.458V191.208Z" fill="var(--fill-0, #FF6B7F)"/>
<path id="Vector_204" d="M204.667 191.208H217.458V203.948H204.667V191.208Z" fill="var(--fill-0, #FF6B7F)"/>
<path id="Vector_205" d="M153.5 191.208H166.292V203.948H153.5V191.208Z" fill="var(--fill-0, #FF6B7F)"/>
<path id="Vector_206" d="M102.333 191.208H115.125V203.948H102.333V191.208Z" fill="var(--fill-0, #FF6B7F)"/>
<path id="Vector_207" d="M89.5417 191.208H102.333V203.948H89.5417V191.208Z" fill="var(--fill-0, #FF6B7F)"/>
<path id="Vector_208" d="M76.7502 191.208H89.5419V203.948H76.7502V191.208Z" fill="var(--fill-0, #FF6B7F)"/>
<path id="Vector_209" d="M25.5835 191.208H38.3752V203.948H25.5835V191.208Z" fill="var(--fill-0, #FF6B7F)"/>
<path id="Vector_210" d="M12.7917 191.208H25.5834V203.948H12.7917V191.208Z" fill="var(--fill-0, #FF6B7F)"/>
<path id="Vector_211" d="M217.458 178.463H230.25V191.208H217.458V178.463Z" fill="var(--fill-0, #FF6B7F)"/>
<path id="Vector_212" d="M204.667 178.463H217.458V191.208H204.667V178.463Z" fill="var(--fill-0, #FF6B7F)"/>
<path id="Vector_213" d="M166.292 178.463H179.083V191.208H166.292V178.463Z" fill="var(--fill-0, #FF6B7F)"/>
<path id="Vector_214" d="M153.5 178.463H166.292V191.208H153.5V178.463Z" fill="var(--fill-0, #FF6B7F)"/>
<path id="Vector_215" d="M115.125 178.463H127.917V191.208H115.125V178.463Z" fill="var(--fill-0, #FF6B7F)"/>
<path id="Vector_216" d="M76.7502 178.463H89.5419V191.208H76.7502V178.463Z" fill="var(--fill-0, #FF6B7F)"/>
<path id="Vector_217" d="M63.9585 178.463H76.7502V191.208H63.9585V178.463Z" fill="var(--fill-0, #FF6B7F)"/>
<path id="Vector_218" d="M12.7917 178.463H25.5834V191.208H12.7917V178.463Z" fill="var(--fill-0, #FF6B7F)"/>
<path id="Vector_219" d="M217.458 165.724H230.25V178.464H217.458V165.724Z" fill="var(--fill-0, #FF6B7F)"/>
<path id="Vector_220" d="M204.667 165.724H217.458V178.464H204.667V165.724Z" fill="var(--fill-0, #FF6B7F)"/>
<path id="Vector_221" d="M166.292 165.724H179.083V178.464H166.292V165.724Z" fill="var(--fill-0, #FF6B7F)"/>
<path id="Vector_222" d="M153.5 165.724H166.292V178.464H153.5V165.724Z" fill="var(--fill-0, #FF6B7F)"/>
<path id="Vector_223" d="M76.7502 165.724H89.5419V178.464H76.7502V165.724Z" fill="var(--fill-0, #FF6B7F)"/>
<path id="Vector_224" d="M63.9585 165.724H76.7502V178.464H63.9585V165.724Z" fill="var(--fill-0, #FF6B7F)"/>
<path id="Vector_225" d="M12.7917 165.724H25.5834V178.464H12.7917V165.724Z" fill="var(--fill-0, #FF6B7F)"/>
<path id="Vector_226" d="M204.667 152.984H217.458V165.724H204.667V152.984Z" fill="var(--fill-0, #FF6B7F)"/>
<path id="Vector_227" d="M153.5 152.984H166.292V165.724H153.5V152.984Z" fill="var(--fill-0, #FF6B7F)"/>
<path id="Vector_228" d="M76.7502 152.984H89.5419V165.724H76.7502V152.984Z" fill="var(--fill-0, #FF6B7F)"/>
<path id="Vector_229" d="M63.9585 152.984H76.7502V165.724H63.9585V152.984Z" fill="var(--fill-0, #FF6B7F)"/>
<path id="Vector_230" d="M12.7917 152.984H25.5834V165.724H12.7917V152.984Z" fill="var(--fill-0, #FF6B7F)"/>
<path id="Vector_231" d="M204.667 140.24H217.458V152.985H204.667V140.24Z" fill="var(--fill-0, #FF6B7F)"/>
<path id="Vector_232" d="M191.875 140.24H204.667V152.985H191.875V140.24Z" fill="var(--fill-0, #FF6B7F)"/>
<path id="Vector_233" d="M153.5 140.24H166.292V152.985H153.5V140.24Z" fill="var(--fill-0, #FF6B7F)"/>
<path id="Vector_234" d="M140.708 140.24H153.5V152.985H140.708V140.24Z" fill="var(--fill-0, #FF6B7F)"/>
<path id="Vector_235" d="M89.5417 140.24H102.333V152.985H89.5417V140.24Z" fill="var(--fill-0, #FF6B7F)"/>
<path id="Vector_236" d="M76.7502 140.24H89.5419V152.985H76.7502V140.24Z" fill="var(--fill-0, #FF6B7F)"/>
<path id="Vector_237" d="M25.5835 140.24H38.3752V152.985H25.5835V140.24Z" fill="var(--fill-0, #FF6B7F)"/>
<path id="Vector_238" d="M12.7917 140.24H25.5834V152.985H12.7917V140.24Z" fill="var(--fill-0, #FF6B7F)"/>
<path id="Vector_239" d="M204.667 127.5H217.458V140.24H204.667V127.5Z" fill="var(--fill-0, #FF6B7F)"/>
<path id="Vector_240" d="M191.875 127.5H204.667V140.24H191.875V127.5Z" fill="var(--fill-0, #FF6B7F)"/>
<path id="Vector_241" d="M140.708 127.5H153.5V140.24H140.708V127.5Z" fill="var(--fill-0, #FF6B7F)"/>
<path id="Vector_242" d="M127.917 127.5H140.708V140.24H127.917V127.5Z" fill="var(--fill-0, #FF6B7F)"/>
<path id="Vector_243" d="M115.125 127.5H127.917V140.24H115.125V127.5Z" fill="var(--fill-0, #FF6B7F)"/>
<path id="Vector_244" d="M102.333 127.5H115.125V140.24H102.333V127.5Z" fill="var(--fill-0, #FF6B7F)"/>
<path id="Vector_245" d="M89.5417 127.5H102.333V140.24H89.5417V127.5Z" fill="var(--fill-0, #FF6B7F)"/>
<path id="Vector_246" d="M76.7502 127.5H89.5419V140.24H76.7502V127.5Z" fill="var(--fill-0, #FF6B7F)"/>
<path id="Vector_247" d="M25.5835 127.5H38.3752V140.24H25.5835V127.5Z" fill="var(--fill-0, #FF6B7F)"/>
<path id="Vector_248" d="M12.7917 127.5H25.5834V140.24H12.7917V127.5Z" fill="var(--fill-0, #FF6B7F)"/>
<path id="Vector_249" d="M191.875 114.76H204.667V127.5H191.875V114.76Z" fill="var(--fill-0, #FF6B7F)"/>
<path id="Vector_250" d="M179.083 114.76H191.875V127.5H179.083V114.76Z" fill="var(--fill-0, #FF6B7F)"/>
<path id="Vector_251" d="M115.125 114.76H127.917V127.5H115.125V114.76Z" fill="var(--fill-0, #FF6B7F)"/>
<path id="Vector_252" d="M102.333 114.76H115.125V127.5H102.333V114.76Z" fill="var(--fill-0, #FF6B7F)"/>
<path id="Vector_253" d="M38.3752 114.76H51.1669V127.5H38.3752V114.76Z" fill="var(--fill-0, #FF6B7F)"/>
<path id="Vector_254" d="M25.5835 114.76H38.3752V127.5H25.5835V114.76Z" fill="var(--fill-0, #FF6B7F)"/>
<path id="Vector_255" d="M179.083 102.016H191.875V114.76H179.083V102.016Z" fill="var(--fill-0, #FF6B7F)"/>
<path id="Vector_256" d="M166.292 102.016H179.083V114.76H166.292V102.016Z" fill="var(--fill-0, #FF6B7F)"/>
<path id="Vector_257" d="M51.1667 102.016H63.9584V114.76H51.1667V102.016Z" fill="var(--fill-0, #FF6B7F)"/>
<path id="Vector_258" d="M38.3752 102.016H51.1669V114.76H38.3752V102.016Z" fill="var(--fill-0, #FF6B7F)"/>
<path id="Vector_259" d="M166.292 89.2759H179.083V102.015H166.292V89.2759Z" fill="var(--fill-0, #FF90A9)"/>
<path id="Vector_260" d="M153.5 89.2759H166.292V102.015H153.5V89.2759Z" fill="var(--fill-0, #FF6B7F)"/>
<path id="Vector_261" d="M140.708 89.2759H153.5V102.015H140.708V89.2759Z" fill="var(--fill-0, #FF6B7F)"/>
<path id="Vector_262" d="M127.917 89.2759H140.708V102.015H127.917V89.2759Z" fill="var(--fill-0, #FF6B7F)"/>
<path id="Vector_263" d="M115.125 89.2759H127.917V102.015H115.125V89.2759Z" fill="var(--fill-0, #FF6B7F)"/>
<path id="Vector_264" d="M102.333 89.2759H115.125V102.015H102.333V89.2759Z" fill="var(--fill-0, #FF6B7F)"/>
<path id="Vector_265" d="M89.5417 89.2759H102.333V102.015H89.5417V89.2759Z" fill="var(--fill-0, #FF6B7F)"/>
<path id="Vector_266" d="M76.7502 89.2759H89.5419V102.015H76.7502V89.2759Z" fill="var(--fill-0, #FF6B7F)"/>
<path id="Vector_267" d="M63.9585 89.2759H76.7502V102.015H63.9585V89.2759Z" fill="var(--fill-0, #FF6B7F)"/>
<path id="Vector_268" d="M140.708 229.432H153.5V242.172H140.708V229.432Z" fill="var(--fill-0, #FF90A9)" fill-opacity="0.5"/>
<path id="Vector_269" d="M153.5 216.693H166.292V229.432H153.5V216.693Z" fill="var(--fill-0, #FF90A9)" fill-opacity="0.5"/>
<path id="Vector_270" d="M38.3752 229.432H51.1669V242.172H38.3752V229.432Z" fill="var(--fill-0, #FF90A9)" fill-opacity="0.5"/>
<path id="Vector_271" d="M12.7917 203.948H25.5834V216.693H12.7917V203.948Z" fill="var(--fill-0, #FF90A9)" fill-opacity="0.5"/>
<path id="Vector_272" d="M127.917 229.432H140.708V242.172H127.917V229.432Z" fill="var(--fill-0, #FF90A9)" fill-opacity="0.5"/>
<path id="Vector_273" d="M115.125 229.432H127.917V242.172H115.125V229.432Z" fill="var(--fill-0, #FF90A9)" fill-opacity="0.5"/>
<path id="Vector_274" d="M102.333 229.432H115.125V242.172H102.333V229.432Z" fill="var(--fill-0, #FF90A9)" fill-opacity="0.5"/>
<path id="Vector_275" d="M89.5417 229.432H102.333V242.172H89.5417V229.432Z" fill="var(--fill-0, #FF90A9)" fill-opacity="0.5"/>
<path id="Vector_276" d="M76.7502 229.432H89.5419V242.172H76.7502V229.432Z" fill="var(--fill-0, #FF90A9)" fill-opacity="0.5"/>
<path id="Vector_277" d="M63.9585 229.432H76.7502V242.172H63.9585V229.432Z" fill="var(--fill-0, #FF90A9)" fill-opacity="0.5"/>
<path id="Vector_278" d="M51.1667 229.432H63.9584V242.172H51.1667V229.432Z" fill="var(--fill-0, #FF90A9)" fill-opacity="0.5"/>
<path id="Vector_279" d="M140.708 216.693H153.5V229.432H140.708V216.693Z" fill="var(--fill-0, #FF90A9)" fill-opacity="0.5"/>
<path id="Vector_280" d="M127.917 216.693H140.708V229.432H127.917V216.693Z" fill="var(--fill-0, #FF90A9)" fill-opacity="0.5"/>
<path id="Vector_281" d="M51.1667 216.693H63.9584V229.432H51.1667V216.693Z" fill="var(--fill-0, #FF90A9)" fill-opacity="0.5"/>
<path id="Vector_282" d="M38.3752 216.693H51.1669V229.432H38.3752V216.693Z" fill="var(--fill-0, #FF90A9)" fill-opacity="0.5"/>
<path id="Vector_283" d="M25.5835 216.693H38.3752V229.432H25.5835V216.693Z" fill="var(--fill-0, #FF90A9)" fill-opacity="0.5"/>
<path id="Vector_284" d="M217.458 203.948H230.25V216.693H217.458V203.948Z" fill="var(--fill-0, #FF90A9)" fill-opacity="0.5"/>
<path id="Vector_285" d="M153.5 203.948H166.292V216.693H153.5V203.948Z" fill="var(--fill-0, #FF90A9)" fill-opacity="0.5"/>
<path id="Vector_286" d="M140.708 203.948H153.5V216.693H140.708V203.948Z" fill="var(--fill-0, #FF90A9)" fill-opacity="0.5"/>
<path id="Vector_287" d="M38.3752 203.948H51.1669V216.693H38.3752V203.948Z" fill="var(--fill-0, #FF90A9)" fill-opacity="0.5"/>
<path id="Vector_288" d="M25.5835 203.948H38.3752V216.693H25.5835V203.948Z" fill="var(--fill-0, #FF90A9)" fill-opacity="0.5"/>
<path id="Vector_289" d="M217.458 191.208H230.25V203.948H217.458V191.208Z" fill="var(--fill-0, #FF90A9)" fill-opacity="0.5"/>
<path id="Vector_290" d="M204.667 191.208H217.458V203.948H204.667V191.208Z" fill="var(--fill-0, #FF90A9)" fill-opacity="0.5"/>
<path id="Vector_291" d="M153.5 191.208H166.292V203.948H153.5V191.208Z" fill="var(--fill-0, #FF90A9)" fill-opacity="0.5"/>
<path id="Vector_292" d="M102.333 191.208H115.125V203.948H102.333V191.208Z" fill="var(--fill-0, #FF90A9)" fill-opacity="0.5"/>
<path id="Vector_293" d="M89.5417 191.208H102.333V203.948H89.5417V191.208Z" fill="var(--fill-0, #FF90A9)" fill-opacity="0.5"/>
<path id="Vector_294" d="M76.7502 191.208H89.5419V203.948H76.7502V191.208Z" fill="var(--fill-0, #FF90A9)" fill-opacity="0.5"/>
<path id="Vector_295" d="M25.5835 191.208H38.3752V203.948H25.5835V191.208Z" fill="var(--fill-0, #FF90A9)" fill-opacity="0.5"/>
<path id="Vector_296" d="M12.7917 191.208H25.5834V203.948H12.7917V191.208Z" fill="var(--fill-0, #FF90A9)" fill-opacity="0.5"/>
<path id="Vector_297" d="M217.458 178.463H230.25V191.208H217.458V178.463Z" fill="var(--fill-0, #FF90A9)" fill-opacity="0.5"/>
<path id="Vector_298" d="M204.667 178.463H217.458V191.208H204.667V178.463Z" fill="var(--fill-0, #FF90A9)" fill-opacity="0.5"/>
<path id="Vector_299" d="M153.5 178.463H166.292V191.208H153.5V178.463Z" fill="var(--fill-0, #FF90A9)" fill-opacity="0.5"/>
<path id="Vector_300" d="M76.7502 178.463H89.5419V191.208H76.7502V178.463Z" fill="var(--fill-0, #FF90A9)" fill-opacity="0.5"/>
<path id="Vector_301" d="M63.9585 178.463H76.7502V191.208H63.9585V178.463Z" fill="var(--fill-0, #FF90A9)" fill-opacity="0.5"/>
<path id="Vector_302" d="M12.7917 178.463H25.5834V191.208H12.7917V178.463Z" fill="var(--fill-0, #FF90A9)" fill-opacity="0.5"/>
<path id="Vector_303" d="M217.458 165.724H230.25V178.464H217.458V165.724Z" fill="var(--fill-0, #FF90A9)" fill-opacity="0.5"/>
<path id="Vector_304" d="M204.667 165.724H217.458V178.464H204.667V165.724Z" fill="var(--fill-0, #FF90A9)" fill-opacity="0.5"/>
<path id="Vector_305" d="M153.5 165.724H166.292V178.464H153.5V165.724Z" fill="var(--fill-0, #FF90A9)" fill-opacity="0.5"/>
<path id="Vector_306" d="M76.7502 165.724H89.5419V178.464H76.7502V165.724Z" fill="var(--fill-0, #FF90A9)" fill-opacity="0.5"/>
<path id="Vector_307" d="M63.9585 165.724H76.7502V178.464H63.9585V165.724Z" fill="var(--fill-0, #FF90A9)" fill-opacity="0.5"/>
<path id="Vector_308" d="M12.7917 165.724H25.5834V178.464H12.7917V165.724Z" fill="var(--fill-0, #FF90A9)" fill-opacity="0.5"/>
<path id="Vector_309" d="M204.667 152.984H217.458V165.724H204.667V152.984Z" fill="var(--fill-0, #FF90A9)" fill-opacity="0.5"/>
<path id="Vector_310" d="M153.5 152.984H166.292V165.724H153.5V152.984Z" fill="var(--fill-0, #FF90A9)" fill-opacity="0.5"/>
<path id="Vector_311" d="M76.7502 152.984H89.5419V165.724H76.7502V152.984Z" fill="var(--fill-0, #FF90A9)" fill-opacity="0.5"/>
<path id="Vector_312" d="M63.9585 152.984H76.7502V165.724H63.9585V152.984Z" fill="var(--fill-0, #FF90A9)" fill-opacity="0.5"/>
<path id="Vector_313" d="M12.7917 152.984H25.5834V165.724H12.7917V152.984Z" fill="var(--fill-0, #FF90A9)" fill-opacity="0.5"/>
<path id="Vector_314" d="M204.667 140.24H217.458V152.985H204.667V140.24Z" fill="var(--fill-0, #FF90A9)" fill-opacity="0.5"/>
<path id="Vector_315" d="M191.875 140.24H204.667V152.985H191.875V140.24Z" fill="var(--fill-0, #FF90A9)" fill-opacity="0.5"/>
<path id="Vector_316" d="M153.5 140.24H166.292V152.985H153.5V140.24Z" fill="var(--fill-0, #FF90A9)" fill-opacity="0.5"/>
<path id="Vector_317" d="M140.708 140.24H153.5V152.985H140.708V140.24Z" fill="var(--fill-0, #FF90A9)" fill-opacity="0.5"/>
<path id="Vector_318" d="M89.5417 140.24H102.333V152.985H89.5417V140.24Z" fill="var(--fill-0, #FF90A9)" fill-opacity="0.5"/>
<path id="Vector_319" d="M76.7502 140.24H89.5419V152.985H76.7502V140.24Z" fill="var(--fill-0, #FF90A9)" fill-opacity="0.5"/>
<path id="Vector_320" d="M25.5835 140.24H38.3752V152.985H25.5835V140.24Z" fill="var(--fill-0, #FF90A9)" fill-opacity="0.5"/>
<path id="Vector_321" d="M12.7917 140.24H25.5834V152.985H12.7917V140.24Z" fill="var(--fill-0, #FF90A9)" fill-opacity="0.5"/>
<path id="Vector_322" d="M204.667 127.5H217.458V140.24H204.667V127.5Z" fill="var(--fill-0, #FF90A9)" fill-opacity="0.5"/>
<path id="Vector_323" d="M191.875 127.5H204.667V140.24H191.875V127.5Z" fill="var(--fill-0, #FF90A9)" fill-opacity="0.5"/>
<path id="Vector_324" d="M140.708 127.5H153.5V140.24H140.708V127.5Z" fill="var(--fill-0, #FF90A9)" fill-opacity="0.5"/>
<path id="Vector_325" d="M127.917 127.5H140.708V140.24H127.917V127.5Z" fill="var(--fill-0, #FF90A9)" fill-opacity="0.5"/>
<path id="Vector_326" d="M115.125 127.5H127.917V140.24H115.125V127.5Z" fill="var(--fill-0, #FF90A9)" fill-opacity="0.5"/>
<path id="Vector_327" d="M102.333 127.5H115.125V140.24H102.333V127.5Z" fill="var(--fill-0, #FF90A9)" fill-opacity="0.5"/>
<path id="Vector_328" d="M89.5417 127.5H102.333V140.24H89.5417V127.5Z" fill="var(--fill-0, #FF90A9)" fill-opacity="0.5"/>
<path id="Vector_329" d="M76.7502 127.5H89.5419V140.24H76.7502V127.5Z" fill="var(--fill-0, #FF90A9)" fill-opacity="0.5"/>
<path id="Vector_330" d="M25.5835 127.5H38.3752V140.24H25.5835V127.5Z" fill="var(--fill-0, #FF90A9)" fill-opacity="0.5"/>
<path id="Vector_331" d="M12.7917 127.5H25.5834V140.24H12.7917V127.5Z" fill="var(--fill-0, #FF90A9)" fill-opacity="0.5"/>
<path id="Vector_332" d="M191.875 114.76H204.667V127.5H191.875V114.76Z" fill="var(--fill-0, #FF90A9)" fill-opacity="0.5"/>
<path id="Vector_333" d="M179.083 114.76H191.875V127.5H179.083V114.76Z" fill="var(--fill-0, #FF90A9)" fill-opacity="0.5"/>
<path id="Vector_334" d="M38.3752 114.76H51.1669V127.5H38.3752V114.76Z" fill="var(--fill-0, #FF90A9)" fill-opacity="0.5"/>
<path id="Vector_335" d="M25.5835 114.76H38.3752V127.5H25.5835V114.76Z" fill="var(--fill-0, #FF90A9)" fill-opacity="0.5"/>
<path id="Vector_336" d="M179.083 102.016H191.875V114.76H179.083V102.016Z" fill="var(--fill-0, #FF90A9)" fill-opacity="0.5"/>
<path id="Vector_337" d="M166.292 102.016H179.083V114.76H166.292V102.016Z" fill="var(--fill-0, #FF90A9)" fill-opacity="0.5"/>
<path id="Vector_338" d="M51.1667 102.016H63.9584V114.76H51.1667V102.016Z" fill="var(--fill-0, #FF90A9)" fill-opacity="0.5"/>
<path id="Vector_339" d="M38.3752 102.016H51.1669V114.76H38.3752V102.016Z" fill="var(--fill-0, #FF90A9)" fill-opacity="0.5"/>
<path id="Vector_340" d="M153.5 89.2759H166.292V102.015H153.5V89.2759Z" fill="var(--fill-0, #FF90A9)" fill-opacity="0.5"/>
<path id="Vector_341" d="M140.708 89.2759H153.5V102.015H140.708V89.2759Z" fill="var(--fill-0, #FF90A9)" fill-opacity="0.5"/>
<path id="Vector_342" d="M127.917 89.2759H140.708V102.015H127.917V89.2759Z" fill="var(--fill-0, #FF90A9)" fill-opacity="0.5"/>
<path id="Vector_343" d="M115.125 89.2759H127.917V102.015H115.125V89.2759Z" fill="var(--fill-0, #FF90A9)" fill-opacity="0.5"/>
<path id="Vector_344" d="M102.333 89.2759H115.125V102.015H102.333V89.2759Z" fill="var(--fill-0, #FF90A9)" fill-opacity="0.5"/>
<path id="Vector_345" d="M89.5417 89.2759H102.333V102.015H89.5417V89.2759Z" fill="var(--fill-0, #FF90A9)" fill-opacity="0.5"/>
<path id="Vector_346" d="M76.7502 89.2759H89.5419V102.015H76.7502V89.2759Z" fill="var(--fill-0, #FF90A9)" fill-opacity="0.5"/>
<path id="Vector_347" d="M63.9585 89.2759H76.7502V102.015H63.9585V89.2759Z" fill="var(--fill-0, #FF90A9)" fill-opacity="0.5"/>
<path id="Vector_348" d="M51.1667 89.2759H63.9584V102.015H51.1667V89.2759Z" fill="var(--fill-0, #FF90A9)"/>
<path id="Vector_349" d="M38.3752 89.2759H51.1669V102.015H38.3752V89.2759Z" fill="var(--fill-0, #FF90A9)"/>
<path id="Vector_350" d="M153.5 76.5312H166.292V89.276H153.5V76.5312Z" fill="var(--fill-0, #FF90A9)"/>
<path id="Vector_351" d="M140.708 76.5312H153.5V89.276H140.708V76.5312Z" fill="var(--fill-0, #FF90A9)"/>
<path id="Vector_352" d="M127.917 76.5312H140.708V89.276H127.917V76.5312Z" fill="var(--fill-0, #FF90A9)"/>
<path id="Vector_353" d="M115.125 76.5312H127.917V89.276H115.125V76.5312Z" fill="var(--fill-0, #FF90A9)"/>
<path id="Vector_354" d="M102.333 76.5312H115.125V89.276H102.333V76.5312Z" fill="var(--fill-0, #FF90A9)"/>
<path id="Vector_355" d="M89.5417 76.5312H102.333V89.276H89.5417V76.5312Z" fill="var(--fill-0, #FF90A9)"/>
<path id="Vector_356" d="M76.7502 76.5312H89.5419V89.276H76.7502V76.5312Z" fill="var(--fill-0, #FF90A9)"/>
<path id="Vector_357" d="M63.9585 76.5312H76.7502V89.276H63.9585V76.5312Z" fill="var(--fill-0, #FF90A9)"/>
<path id="Vector_358" d="M293.125 63.021H307V77.6877H293.125V63.021Z" fill="var(--fill-0, black)"/>
<path id="Vector_359" d="M294.208 63.792H307V76.5316H294.208V63.792Z" fill="var(--fill-0, #FF6B7F)"/>
<path id="Vector_360" d="M230.25 63.7915H243.042V76.5311H230.25V63.7915Z" fill="var(--fill-0, #FF6B7F)"/>
<path id="Vector_361" d="M230.25 216.693H243.042V229.432H230.25V216.693Z" fill="var(--fill-0, #BC1F3C)"/>
<path id="Vector_362" d="M243.042 203.948H255.833V216.693H243.042V203.948Z" fill="var(--fill-0, #BC1F3C)"/>
<path id="Vector_363" d="M243.042 191.208H255.833V203.948H243.042V191.208Z" fill="var(--fill-0, #BC1F3C)"/>
<path id="Vector_364" d="M255.833 178.463H268.625V191.208H255.833V178.463Z" fill="var(--fill-0, #BC1F3C)"/>
<path id="Vector_365" d="M243.042 178.463H255.833V191.208H243.042V178.463Z" fill="var(--fill-0, #BC1F3C)"/>
<path id="Vector_366" d="M255.833 165.724H268.625V178.464H255.833V165.724Z" fill="var(--fill-0, #BC1F3C)"/>
<path id="Vector_367" d="M243.042 165.724H255.833V178.464H243.042V165.724Z" fill="var(--fill-0, #BC1F3C)"/>
<path id="Vector_368" d="M243.042 152.984H255.833V165.724H243.042V152.984Z" fill="var(--fill-0, #BC1F3C)"/>
<path id="Vector_369" d="M230.25 140.24H243.042V152.985H230.25V140.24Z" fill="var(--fill-0, #BC1F3C)"/>
<path id="Vector_370" d="M230.25 127.5H243.042V140.24H230.25V127.5Z" fill="var(--fill-0, #BC1F3C)"/>
<path id="Vector_371" d="M230.25 114.76H243.042V127.5H230.25V114.76Z" fill="var(--fill-0, #BC1F3C)"/>
<path id="Vector_372" d="M217.458 102.016H230.25V114.76H217.458V102.016Z" fill="var(--fill-0, #BC1F3C)"/>
<path id="Vector_373" d="M217.458 89.2759H230.25V102.015H217.458V89.2759Z" fill="var(--fill-0, #BC1F3C)"/>
<path id="Vector_374" d="M204.667 89.2759H217.458V102.015H204.667V89.2759Z" fill="var(--fill-0, #BC1F3C)"/>
<path id="Vector_375" d="M25.5835 89.2759H38.3752V102.015H25.5835V89.2759Z" fill="var(--fill-0, #FF6B7F)"/>
<path id="Vector_376" d="M191.875 76.5312H204.667V89.276H191.875V76.5312Z" fill="var(--fill-0, #BC1F3C)"/>
<path id="Vector_377" d="M179.083 76.5312H191.875V89.276H179.083V76.5312Z" fill="var(--fill-0, #BC1F3C)"/>
<path id="Vector_378" d="M51.1667 76.5312H63.9584V89.276H51.1667V76.5312Z" fill="var(--fill-0, #FF6B7F)"/>
<path id="Vector_379" d="M38.3752 76.5312H51.1669V89.276H38.3752V76.5312Z" fill="var(--fill-0, #FF6B7F)"/>
<path id="Vector_380" d="M166.292 63.7915H179.083V76.5311H166.292V63.7915Z" fill="var(--fill-0, #BC1F3C)"/>
<path id="Vector_381" d="M153.5 63.7915H166.292V76.5311H153.5V63.7915Z" fill="var(--fill-0, #BC1F3C)"/>
<path id="Vector_382" d="M140.708 63.7915H153.5V76.5311H140.708V63.7915Z" fill="var(--fill-0, #BC1F3C)"/>
<path id="Vector_383" d="M127.917 63.7915H140.708V76.5311H127.917V63.7915Z" fill="var(--fill-0, #BC1F3C)"/>
<path id="Vector_384" d="M115.125 63.7915H127.917V76.5311H115.125V63.7915Z" fill="var(--fill-0, #BC1F3C)"/>
<path id="Vector_385" d="M102.333 63.7915H115.125V76.5311H102.333V63.7915Z" fill="var(--fill-0, #BC1F3C)"/>
<path id="Vector_386" d="M89.5417 63.7915H102.333V76.5311H89.5417V63.7915Z" fill="var(--fill-0, #BC1F3C)"/>
<path id="Vector_387" d="M76.7502 63.7915H89.5419V76.5311H76.7502V63.7915Z" fill="var(--fill-0, #FF6B7F)"/>
<path id="Vector_388" d="M63.9585 63.7915H76.7502V76.5311H63.9585V63.7915Z" fill="var(--fill-0, #FF6B7F)"/>
<path id="Vector_389" d="M51.1667 63.7915H63.9584V76.5311H51.1667V63.7915Z" fill="var(--fill-0, #FF6B7F)"/>
<path id="Vector_390" d="M25.5835 89.2759H38.3752V102.015H25.5835V89.2759Z" fill="var(--fill-0, #BC1F3C)" fill-opacity="0.2"/>
<path id="Vector_391" d="M51.1667 76.5312H63.9584V89.276H51.1667V76.5312Z" fill="var(--fill-0, #BC1F3C)" fill-opacity="0.2"/>
<path id="Vector_392" d="M38.3752 76.5312H51.1669V89.276H38.3752V76.5312Z" fill="var(--fill-0, #BC1F3C)" fill-opacity="0.2"/>
<path id="Vector_393" d="M76.7502 63.7915H89.5419V76.5311H76.7502V63.7915Z" fill="var(--fill-0, #BC1F3C)" fill-opacity="0.2"/>
<path id="Vector_394" d="M63.9585 63.7915H76.7502V76.5311H63.9585V63.7915Z" fill="var(--fill-0, #BC1F3C)" fill-opacity="0.2"/>
<path id="Vector_395" d="M51.1667 63.7915H63.9584V76.5311H51.1667V63.7915Z" fill="var(--fill-0, #BC1F3C)" fill-opacity="0.2"/>
<path id="Vector_396" d="M293.125 51.021H307V64.3543H293.125V51.021Z" fill="var(--fill-0, black)"/>
<path id="Vector_397" d="M294.208 51.0522H307V63.7918H294.208V51.0522Z" fill="var(--fill-0, #FF6B7F)"/>
<path id="Vector_398" d="M268.625 114.76H281.417V127.5H268.625V114.76Z" fill="var(--fill-0, #FFC384)"/>
<path id="Vector_399" d="M255.833 114.76H268.625V127.5H255.833V114.76Z" fill="var(--fill-0, #FFC384)"/>
<path id="Vector_400" d="M268.625 102.016H281.417V114.76H268.625V102.016Z" fill="var(--fill-0, #FFC384)"/>
<path id="Vector_401" d="M281.417 63.7915H294.208V76.5311H281.417V63.7915Z" fill="var(--fill-0, #FFC384)"/>
<path id="Vector_402" d="M268.625 63.7915H281.417V76.5311H268.625V63.7915Z" fill="var(--fill-0, #FFC384)"/>
<path id="Vector_403" d="M281.417 51.0522H294.208V63.7918H281.417V51.0522Z" fill="var(--fill-0, #FFC384)"/>
<path id="Vector_404" d="M268.625 114.76H281.417V127.5H268.625V114.76Z" fill="var(--fill-0, #FFDFBE)" fill-opacity="0.4"/>
<path id="Vector_405" d="M255.833 114.76H268.625V127.5H255.833V114.76Z" fill="var(--fill-0, #FFDFBE)" fill-opacity="0.4"/>
<path id="Vector_406" d="M268.625 102.016H281.417V114.76H268.625V102.016Z" fill="var(--fill-0, #FFDFBE)" fill-opacity="0.4"/>
<path id="Vector_407" d="M281.417 63.7915H294.208V76.5311H281.417V63.7915Z" fill="var(--fill-0, #FFDFBE)" fill-opacity="0.4"/>
<path id="Vector_408" d="M268.625 63.7915H281.417V76.5311H268.625V63.7915Z" fill="var(--fill-0, #FFDFBE)" fill-opacity="0.4"/>
<path id="Vector_409" d="M281.417 51.0522H294.208V63.7918H281.417V51.0522Z" fill="var(--fill-0, #FFDFBE)" fill-opacity="0.4"/>
<path id="Vector_410" d="M243.042 51.0522H255.833V63.7918H243.042V51.0522Z" fill="var(--fill-0, #FF6B7F)"/>
<path id="Vector_411" d="M293.125 37.6875H307V52.3542H293.125V37.6875Z" fill="var(--fill-0, black)"/>
<path id="Vector_412" d="M294.208 38.3071H307V51.0519H294.208V38.3071Z" fill="var(--fill-0, #FF6B7F)"/>
<path id="Vector_413" d="M255.833 152.984H268.625V165.724H255.833V152.984Z" fill="var(--fill-0, #FF6B7F)"/>
<path id="Vector_414" d="M268.625 140.24H281.417V152.985H268.625V140.24Z" fill="var(--fill-0, #FF6B7F)"/>
<path id="Vector_415" d="M255.833 140.24H268.625V152.985H255.833V140.24Z" fill="var(--fill-0, #FF6B7F)"/>
<path id="Vector_416" d="M243.042 140.24H255.833V152.985H243.042V140.24Z" fill="var(--fill-0, #FF6B7F)"/>
<path id="Vector_417" d="M268.625 127.5H281.417V140.24H268.625V127.5Z" fill="var(--fill-0, #FF6B7F)"/>
<path id="Vector_418" d="M255.833 127.5H268.625V140.24H255.833V127.5Z" fill="var(--fill-0, #FF6B7F)"/>
<path id="Vector_419" d="M243.042 127.5H255.833V140.24H243.042V127.5Z" fill="var(--fill-0, #FF6B7F)"/>
<path id="Vector_420" d="M281.417 114.76H294.208V127.5H281.417V114.76Z" fill="var(--fill-0, #FF6B7F)"/>
<path id="Vector_421" d="M243.042 114.76H255.833V127.5H243.042V114.76Z" fill="var(--fill-0, #FF6B7F)"/>
<path id="Vector_422" d="M281.417 102.016H294.208V114.76H281.417V102.016Z" fill="var(--fill-0, #FF6B7F)"/>
<path id="Vector_423" d="M255.833 102.016H268.625V114.76H255.833V102.016Z" fill="var(--fill-0, #FF6B7F)"/>
<path id="Vector_424" d="M243.042 102.016H255.833V114.76H243.042V102.016Z" fill="var(--fill-0, #FF6B7F)"/>
<path id="Vector_425" d="M230.25 102.016H243.042V114.76H230.25V102.016Z" fill="var(--fill-0, #FF6B7F)"/>
<path id="Vector_426" d="M281.417 89.2759H294.208V102.015H281.417V89.2759Z" fill="var(--fill-0, #FF6B7F)"/>
<path id="Vector_427" d="M268.625 89.2759H281.417V102.015H268.625V89.2759Z" fill="var(--fill-0, #FF6B7F)"/>
<path id="Vector_428" d="M255.833 89.2759H268.625V102.015H255.833V89.2759Z" fill="var(--fill-0, #FF6B7F)"/>
<path id="Vector_429" d="M243.042 89.2759H255.833V102.015H243.042V89.2759Z" fill="var(--fill-0, #FF6B7F)"/>
<path id="Vector_430" d="M230.25 89.2759H243.042V102.015H230.25V89.2759Z" fill="var(--fill-0, #FF6B7F)"/>
<path id="Vector_431" d="M281.417 76.5312H294.208V89.276H281.417V76.5312Z" fill="var(--fill-0, #FF6B7F)"/>
<path id="Vector_432" d="M268.625 76.5312H281.417V89.276H268.625V76.5312Z" fill="var(--fill-0, #FF6B7F)"/>
<path id="Vector_433" d="M255.833 76.5312H268.625V89.276H255.833V76.5312Z" fill="var(--fill-0, #FF6B7F)"/>
<path id="Vector_434" d="M243.042 76.5312H255.833V89.276H243.042V76.5312Z" fill="var(--fill-0, #FF6B7F)"/>
<path id="Vector_435" d="M230.25 76.5312H243.042V89.276H230.25V76.5312Z" fill="var(--fill-0, #FF6B7F)"/>
<path id="Vector_436" d="M255.833 63.7915H268.625V76.5311H255.833V63.7915Z" fill="var(--fill-0, #FF6B7F)"/>
<path id="Vector_437" d="M243.042 63.7915H255.833V76.5311H243.042V63.7915Z" fill="var(--fill-0, #FF6B7F)"/>
<path id="Vector_438" d="M268.625 51.0522H281.417V63.7918H268.625V51.0522Z" fill="var(--fill-0, #FF6B7F)"/>
<path id="Vector_439" d="M255.833 51.0522H268.625V63.7918H255.833V51.0522Z" fill="var(--fill-0, #FF6B7F)"/>
<path id="Vector_440" d="M281.417 38.3071H294.208V51.0519H281.417V38.3071Z" fill="var(--fill-0, #FF6B7F)"/>
<path id="Vector_441" d="M268.625 38.3071H281.417V51.0519H268.625V38.3071Z" fill="var(--fill-0, #FF6B7F)"/>
<path id="Vector_442" d="M293.125 88.354H307V103.021H293.125V88.354Z" fill="var(--fill-0, black)"/>
<path id="Vector_443" d="M294.208 89.2759H307V102.015H294.208V89.2759Z" fill="var(--fill-0, #BC1F3C)" fill-opacity="0.4"/>
<path id="Vector_444" d="M293.125 76.354H307V89.6873H293.125V76.354Z" fill="var(--fill-0, black)"/>
<path id="Vector_445" d="M294.208 76.5312H307V89.276H294.208V76.5312Z" fill="var(--fill-0, #BC1F3C)" fill-opacity="0.4"/>
<path id="Vector_446" d="M293.125 63.021H307V77.6877H293.125V63.021Z" fill="var(--fill-0, black)"/>
<path id="Vector_447" d="M294.208 63.792H307V76.5316H294.208V63.792Z" fill="var(--fill-0, #BC1F3C)" fill-opacity="0.4"/>
<path id="Vector_448" d="M293.125 51.021H307V64.3543H293.125V51.021Z" fill="var(--fill-0, black)"/>
<path id="Vector_449" d="M294.208 51.0522H307V63.7918H294.208V51.0522Z" fill="var(--fill-0, #BC1F3C)" fill-opacity="0.4"/>
<path id="Vector_450" d="M255.833 152.984H268.625V165.724H255.833V152.984Z" fill="var(--fill-0, #BC1F3C)" fill-opacity="0.4"/>
<path id="Vector_451" d="M268.625 140.24H281.417V152.985H268.625V140.24Z" fill="var(--fill-0, #BC1F3C)" fill-opacity="0.4"/>
<path id="Vector_452" d="M255.833 140.24H268.625V152.985H255.833V140.24Z" fill="var(--fill-0, #BC1F3C)" fill-opacity="0.4"/>
<path id="Vector_453" d="M243.042 140.24H255.833V152.985H243.042V140.24Z" fill="var(--fill-0, #BC1F3C)" fill-opacity="0.4"/>
<path id="Vector_454" d="M268.625 127.5H281.417V140.24H268.625V127.5Z" fill="var(--fill-0, #BC1F3C)" fill-opacity="0.4"/>
<path id="Vector_455" d="M255.833 127.5H268.625V140.24H255.833V127.5Z" fill="var(--fill-0, #BC1F3C)" fill-opacity="0.4"/>
<path id="Vector_456" d="M243.042 127.5H255.833V140.24H243.042V127.5Z" fill="var(--fill-0, #BC1F3C)" fill-opacity="0.4"/>
<path id="Vector_457" d="M281.417 114.76H294.208V127.5H281.417V114.76Z" fill="var(--fill-0, #BC1F3C)" fill-opacity="0.4"/>
<path id="Vector_458" d="M243.042 114.76H255.833V127.5H243.042V114.76Z" fill="var(--fill-0, #BC1F3C)" fill-opacity="0.4"/>
<path id="Vector_459" d="M281.417 102.016H294.208V114.76H281.417V102.016Z" fill="var(--fill-0, #BC1F3C)" fill-opacity="0.4"/>
<path id="Vector_460" d="M255.833 102.016H268.625V114.76H255.833V102.016Z" fill="var(--fill-0, #BC1F3C)" fill-opacity="0.4"/>
<path id="Vector_461" d="M243.042 102.016H255.833V114.76H243.042V102.016Z" fill="var(--fill-0, #BC1F3C)" fill-opacity="0.4"/>
<path id="Vector_462" d="M230.25 102.016H243.042V114.76H230.25V102.016Z" fill="var(--fill-0, #BC1F3C)" fill-opacity="0.4"/>
<path id="Vector_463" d="M281.417 89.2759H294.208V102.015H281.417V89.2759Z" fill="var(--fill-0, #BC1F3C)" fill-opacity="0.4"/>
<path id="Vector_464" d="M268.625 89.2759H281.417V102.015H268.625V89.2759Z" fill="var(--fill-0, #BC1F3C)" fill-opacity="0.4"/>
<path id="Vector_465" d="M255.833 89.2759H268.625V102.015H255.833V89.2759Z" fill="var(--fill-0, #BC1F3C)" fill-opacity="0.4"/>
<path id="Vector_466" d="M243.042 89.2759H255.833V102.015H243.042V89.2759Z" fill="var(--fill-0, #BC1F3C)" fill-opacity="0.4"/>
<path id="Vector_467" d="M230.25 89.2759H243.042V102.015H230.25V89.2759Z" fill="var(--fill-0, #BC1F3C)" fill-opacity="0.4"/>
<path id="Vector_468" d="M281.417 76.5312H294.208V89.276H281.417V76.5312Z" fill="var(--fill-0, #BC1F3C)" fill-opacity="0.4"/>
<path id="Vector_469" d="M268.625 76.5312H281.417V89.276H268.625V76.5312Z" fill="var(--fill-0, #BC1F3C)" fill-opacity="0.4"/>
<path id="Vector_470" d="M255.833 76.5312H268.625V89.276H255.833V76.5312Z" fill="var(--fill-0, #BC1F3C)" fill-opacity="0.4"/>
<path id="Vector_471" d="M243.042 76.5312H255.833V89.276H243.042V76.5312Z" fill="var(--fill-0, #BC1F3C)" fill-opacity="0.4"/>
<path id="Vector_472" d="M230.25 76.5312H243.042V89.276H230.25V76.5312Z" fill="var(--fill-0, #BC1F3C)" fill-opacity="0.4"/>
<path id="Vector_473" d="M255.833 63.7915H268.625V76.5311H255.833V63.7915Z" fill="var(--fill-0, #BC1F3C)" fill-opacity="0.4"/>
<path id="Vector_474" d="M243.042 63.7915H255.833V76.5311H243.042V63.7915Z" fill="var(--fill-0, #BC1F3C)" fill-opacity="0.4"/>
<path id="Vector_475" d="M268.625 51.0522H281.417V63.7918H268.625V51.0522Z" fill="var(--fill-0, #BC1F3C)" fill-opacity="0.4"/>
<path id="Vector_476" d="M255.833 51.0522H268.625V63.7918H255.833V51.0522Z" fill="var(--fill-0, #BC1F3C)" fill-opacity="0.4"/>
<path id="Vector_477" d="M281.417 38.3071H294.208V51.0519H281.417V38.3071Z" fill="var(--fill-0, #BC1F3C)" fill-opacity="0.4"/>
<path id="Vector_478" d="M268.625 38.3071H281.417V51.0519H268.625V38.3071Z" fill="var(--fill-0, #BC1F3C)" fill-opacity="0.4"/>
<path id="Vector_479" d="M255.833 38.3071H268.625V51.0519H255.833V38.3071Z" fill="var(--fill-0, #FF6B7F)"/>
<path id="Vector_480" d="M281.417 25.5679H294.208V38.3075H281.417V25.5679Z" fill="var(--fill-0, #FF6B7F)"/>
<path id="Vector_481" d="M268.625 25.5679H281.417V38.3075H268.625V25.5679Z" fill="var(--fill-0, #FF6B7F)"/>
<path id="Vector_482" d="M204.667 76.5312H217.458V89.276H204.667V76.5312Z" fill="var(--fill-0, #FF6B7F)"/>
<path id="Vector_483" d="M217.458 63.7915H230.25V76.5311H217.458V63.7915Z" fill="var(--fill-0, #FF6B7F)"/>
<path id="Vector_484" d="M230.25 51.0522H243.042V63.7918H230.25V51.0522Z" fill="var(--fill-0, #FF6B7F)"/>
<path id="Vector_485" d="M243.042 38.3071H255.833V51.0519H243.042V38.3071Z" fill="var(--fill-0, #FF6B7F)"/>
<path id="Vector_486" d="M255.833 25.5679H268.625V38.3075H255.833V25.5679Z" fill="var(--fill-0, #FF6B7F)"/>
<path id="Vector_487" d="M268.625 12.8228H281.417V25.5675H268.625V12.8228Z" fill="var(--fill-0, #FF6B7F)"/>
<path id="Vector_488" d="M204.667 63.7915H217.458V76.5311H204.667V63.7915Z" fill="var(--fill-0, #FF6B7F)"/>
<path id="Vector_489" d="M217.458 51.0522H230.25V63.7918H217.458V51.0522Z" fill="var(--fill-0, #FF6B7F)"/>
<path id="Vector_490" d="M230.25 38.3071H243.042V51.0519H230.25V38.3071Z" fill="var(--fill-0, #FF6B7F)"/>
<path id="Vector_491" d="M243.042 25.5679H255.833V38.3075H243.042V25.5679Z" fill="var(--fill-0, #FF6B7F)"/>
<path id="Vector_492" d="M255.833 12.8228H268.625V25.5675H255.833V12.8228Z" fill="var(--fill-0, #FF6B7F)"/>
<path id="Vector_493" d="M153.5 51.0522H166.292V63.7918H153.5V51.0522Z" fill="var(--fill-0, #FFC384)"/>
<path id="Vector_494" d="M140.708 51.0522H153.5V63.7918H140.708V51.0522Z" fill="var(--fill-0, #FFC384)"/>
<path id="Vector_495" d="M153.5 38.3071H166.292V51.0519H153.5V38.3071Z" fill="var(--fill-0, #FFC384)"/>
<path id="Vector_496" d="M89.5417 38.3071H102.333V51.0519H89.5417V38.3071Z" fill="var(--fill-0, #FFC384)"/>
<path id="Vector_497" d="M76.7502 38.3071H89.5419V51.0519H76.7502V38.3071Z" fill="var(--fill-0, #FFC384)"/>
<path id="Vector_498" d="M230.25 25.5679H243.042V38.3075H230.25V25.5679Z" fill="var(--fill-0, #FFC384)"/>
<path id="Vector_499" d="M217.458 25.5679H230.25V38.3075H217.458V25.5679Z" fill="var(--fill-0, #FFC384)"/>
<path id="Vector_500" d="M89.5417 25.5679H102.333V38.3075H89.5417V25.5679Z" fill="var(--fill-0, #FFC384)"/>
<path id="Vector_501" d="M230.25 12.8228H243.042V25.5675H230.25V12.8228Z" fill="var(--fill-0, #FFC384)"/>
<path id="Vector_502" d="M153.5 51.0522H166.292V63.7918H153.5V51.0522Z" fill="var(--fill-0, #FFDFBE)" fill-opacity="0.8"/>
<path id="Vector_503" d="M140.708 51.0522H153.5V63.7918H140.708V51.0522Z" fill="var(--fill-0, #FFDFBE)" fill-opacity="0.8"/>
<path id="Vector_504" d="M153.5 38.3071H166.292V51.0519H153.5V38.3071Z" fill="var(--fill-0, #FFDFBE)" fill-opacity="0.8"/>
<path id="Vector_505" d="M89.5417 38.3071H102.333V51.0519H89.5417V38.3071Z" fill="var(--fill-0, #FFDFBE)" fill-opacity="0.8"/>
<path id="Vector_506" d="M76.7502 38.3071H89.5419V51.0519H76.7502V38.3071Z" fill="var(--fill-0, #FFDFBE)" fill-opacity="0.8"/>
<path id="Vector_507" d="M230.25 25.5679H243.042V38.3075H230.25V25.5679Z" fill="var(--fill-0, #FFDFBE)" fill-opacity="0.8"/>
<path id="Vector_508" d="M217.458 25.5679H230.25V38.3075H217.458V25.5679Z" fill="var(--fill-0, #FFDFBE)" fill-opacity="0.8"/>
<path id="Vector_509" d="M89.5417 25.5679H102.333V38.3075H89.5417V25.5679Z" fill="var(--fill-0, #FFDFBE)" fill-opacity="0.8"/>
<path id="Vector_510" d="M230.25 12.8228H243.042V25.5675H230.25V12.8228Z" fill="var(--fill-0, #FFDFBE)" fill-opacity="0.8"/>
<path id="Vector_511" d="M191.875 63.7915H204.667V76.5311H191.875V63.7915Z" fill="var(--fill-0, #FF6B7F)"/>
<path id="Vector_512" d="M179.083 63.7915H191.875V76.5311H179.083V63.7915Z" fill="var(--fill-0, #FF6B7F)"/>
<path id="Vector_513" d="M204.667 51.0522H217.458V63.7918H204.667V51.0522Z" fill="var(--fill-0, #FF6B7F)"/>
<path id="Vector_514" d="M191.875 51.0522H204.667V63.7918H191.875V51.0522Z" fill="var(--fill-0, #FF6B7F)"/>
<path id="Vector_515" d="M179.083 51.0522H191.875V63.7918H179.083V51.0522Z" fill="var(--fill-0, #FF6B7F)"/>
<path id="Vector_516" d="M166.292 51.0522H179.083V63.7918H166.292V51.0522Z" fill="var(--fill-0, #FF6B7F)"/>
<path id="Vector_517" d="M127.917 51.0522H140.708V63.7918H127.917V51.0522Z" fill="var(--fill-0, #FF6B7F)"/>
<path id="Vector_518" d="M115.125 51.0522H127.917V63.7918H115.125V51.0522Z" fill="var(--fill-0, #FF6B7F)"/>
<path id="Vector_519" d="M102.333 51.0522H115.125V63.7918H102.333V51.0522Z" fill="var(--fill-0, #FF6B7F)"/>
<path id="Vector_520" d="M217.458 38.3071H230.25V51.0519H217.458V38.3071Z" fill="var(--fill-0, #FF6B7F)"/>
<path id="Vector_521" d="M204.667 38.3071H217.458V51.0519H204.667V38.3071Z" fill="var(--fill-0, #FF6B7F)"/>
<path id="Vector_522" d="M191.875 38.3071H204.667V51.0519H191.875V38.3071Z" fill="var(--fill-0, #FF6B7F)"/>
<path id="Vector_523" d="M179.083 38.3071H191.875V51.0519H179.083V38.3071Z" fill="var(--fill-0, #FF6B7F)"/>
<path id="Vector_524" d="M166.292 38.3071H179.083V51.0519H166.292V38.3071Z" fill="var(--fill-0, #FF6B7F)"/>
<path id="Vector_525" d="M140.708 38.3071H153.5V51.0519H140.708V38.3071Z" fill="var(--fill-0, #FF6B7F)"/>
<path id="Vector_526" d="M127.917 38.3071H140.708V51.0519H127.917V38.3071Z" fill="var(--fill-0, #FF6B7F)"/>
<path id="Vector_527" d="M115.125 38.3071H127.917V51.0519H115.125V38.3071Z" fill="var(--fill-0, #FF6B7F)"/>
<path id="Vector_528" d="M204.667 25.5679H217.458V38.3075H204.667V25.5679Z" fill="var(--fill-0, #FF6B7F)"/>
<path id="Vector_529" d="M191.875 25.5679H204.667V38.3075H191.875V25.5679Z" fill="var(--fill-0, #FF6B7F)"/>
<path id="Vector_530" d="M179.083 25.5679H191.875V38.3075H179.083V25.5679Z" fill="var(--fill-0, #FF6B7F)"/>
<path id="Vector_531" d="M166.292 25.5679H179.083V38.3075H166.292V25.5679Z" fill="var(--fill-0, #FF6B7F)"/>
<path id="Vector_532" d="M153.5 25.5679H166.292V38.3075H153.5V25.5679Z" fill="var(--fill-0, #FF6B7F)"/>
<path id="Vector_533" d="M140.708 25.5679H153.5V38.3075H140.708V25.5679Z" fill="var(--fill-0, #FF6B7F)"/>
<path id="Vector_534" d="M127.917 25.5679H140.708V38.3075H127.917V25.5679Z" fill="var(--fill-0, #FF6B7F)"/>
<path id="Vector_535" d="M243.042 12.8228H255.833V25.5675H243.042V12.8228Z" fill="var(--fill-0, #FF6B7F)"/>
<path id="Vector_536" d="M217.458 12.8228H230.25V25.5675H217.458V12.8228Z" fill="var(--fill-0, #FF6B7F)"/>
<path id="Vector_537" d="M204.667 12.8228H217.458V25.5675H204.667V12.8228Z" fill="var(--fill-0, #FF6B7F)"/>
<path id="Vector_538" d="M191.875 12.8228H204.667V25.5675H191.875V12.8228Z" fill="var(--fill-0, #FF6B7F)"/>
<path id="Vector_539" d="M179.083 12.8228H191.875V25.5675H179.083V12.8228Z" fill="var(--fill-0, #FF6B7F)"/>
<path id="Vector_540" d="M166.292 12.8228H179.083V25.5675H166.292V12.8228Z" fill="var(--fill-0, #FF6B7F)"/>
<path id="Vector_541" d="M153.5 12.8228H166.292V25.5675H153.5V12.8228Z" fill="var(--fill-0, #FF6B7F)"/>
<path id="Vector_542" d="M140.708 12.8228H153.5V25.5675H140.708V12.8228Z" fill="var(--fill-0, #FF6B7F)"/>
<path id="Vector_543" d="M217.458 76.5312H230.25V89.276H217.458V76.5312Z" fill="var(--fill-0, #BC1F3C)" fill-opacity="0.2"/>
<path id="Vector_544" d="M230.25 63.7915H243.042V76.5311H230.25V63.7915Z" fill="var(--fill-0, #BC1F3C)" fill-opacity="0.2"/>
<path id="Vector_545" d="M243.042 51.0522H255.833V63.7918H243.042V51.0522Z" fill="var(--fill-0, #BC1F3C)" fill-opacity="0.2"/>
<path id="Vector_546" d="M293.125 37.6875H307V52.3542H293.125V37.6875Z" fill="var(--fill-0, black)"/>
<path id="Vector_547" d="M294.208 38.3071H307V51.0519H294.208V38.3071Z" fill="var(--fill-0, #BC1F3C)" fill-opacity="0.2"/>
<path id="Vector_548" d="M255.833 38.3071H268.625V51.0519H255.833V38.3071Z" fill="var(--fill-0, #BC1F3C)" fill-opacity="0.2"/>
<path id="Vector_549" d="M281.417 25.5679H294.208V38.3075H281.417V25.5679Z" fill="var(--fill-0, #BC1F3C)" fill-opacity="0.2"/>
<path id="Vector_550" d="M268.625 25.5679H281.417V38.3075H268.625V25.5679Z" fill="var(--fill-0, #BC1F3C)" fill-opacity="0.2"/>
<path id="Vector_551" d="M191.875 63.7915H204.667V76.5311H191.875V63.7915Z" fill="var(--fill-0, #BC1F3C)" fill-opacity="0.2"/>
<path id="Vector_552" d="M179.083 63.7915H191.875V76.5311H179.083V63.7915Z" fill="var(--fill-0, #BC1F3C)" fill-opacity="0.2"/>
<path id="Vector_553" d="M204.667 51.0522H217.458V63.7918H204.667V51.0522Z" fill="var(--fill-0, #BC1F3C)" fill-opacity="0.2"/>
<path id="Vector_554" d="M191.875 51.0522H204.667V63.7918H191.875V51.0522Z" fill="var(--fill-0, #BC1F3C)" fill-opacity="0.2"/>
<path id="Vector_555" d="M179.083 51.0522H191.875V63.7918H179.083V51.0522Z" fill="var(--fill-0, #BC1F3C)" fill-opacity="0.2"/>
<path id="Vector_556" d="M166.292 51.0522H179.083V63.7918H166.292V51.0522Z" fill="var(--fill-0, #BC1F3C)" fill-opacity="0.2"/>
<path id="Vector_557" d="M127.917 51.0522H140.708V63.7918H127.917V51.0522Z" fill="var(--fill-0, #BC1F3C)" fill-opacity="0.2"/>
<path id="Vector_558" d="M115.125 51.0522H127.917V63.7918H115.125V51.0522Z" fill="var(--fill-0, #BC1F3C)" fill-opacity="0.2"/>
<path id="Vector_559" d="M102.333 51.0522H115.125V63.7918H102.333V51.0522Z" fill="var(--fill-0, #BC1F3C)" fill-opacity="0.2"/>
<path id="Vector_560" d="M217.458 38.3071H230.25V51.0519H217.458V38.3071Z" fill="var(--fill-0, #BC1F3C)" fill-opacity="0.2"/>
<path id="Vector_561" d="M204.667 38.3071H217.458V51.0519H204.667V38.3071Z" fill="var(--fill-0, #BC1F3C)" fill-opacity="0.2"/>
<path id="Vector_562" d="M191.875 38.3071H204.667V51.0519H191.875V38.3071Z" fill="var(--fill-0, #BC1F3C)" fill-opacity="0.2"/>
<path id="Vector_563" d="M179.083 38.3071H191.875V51.0519H179.083V38.3071Z" fill="var(--fill-0, #BC1F3C)" fill-opacity="0.2"/>
<path id="Vector_564" d="M166.292 38.3071H179.083V51.0519H166.292V38.3071Z" fill="var(--fill-0, #BC1F3C)" fill-opacity="0.2"/>
<path id="Vector_565" d="M140.708 38.3071H153.5V51.0519H140.708V38.3071Z" fill="var(--fill-0, #BC1F3C)" fill-opacity="0.2"/>
<path id="Vector_566" d="M127.917 38.3071H140.708V51.0519H127.917V38.3071Z" fill="var(--fill-0, #BC1F3C)" fill-opacity="0.2"/>
<path id="Vector_567" d="M115.125 38.3071H127.917V51.0519H115.125V38.3071Z" fill="var(--fill-0, #BC1F3C)" fill-opacity="0.2"/>
<path id="Vector_568" d="M204.667 25.5679H217.458V38.3075H204.667V25.5679Z" fill="var(--fill-0, #BC1F3C)" fill-opacity="0.2"/>
<path id="Vector_569" d="M191.875 25.5679H204.667V38.3075H191.875V25.5679Z" fill="var(--fill-0, #BC1F3C)" fill-opacity="0.2"/>
<path id="Vector_570" d="M179.083 25.5679H191.875V38.3075H179.083V25.5679Z" fill="var(--fill-0, #BC1F3C)" fill-opacity="0.2"/>
<path id="Vector_571" d="M166.292 25.5679H179.083V38.3075H166.292V25.5679Z" fill="var(--fill-0, #BC1F3C)" fill-opacity="0.2"/>
<path id="Vector_572" d="M153.5 25.5679H166.292V38.3075H153.5V25.5679Z" fill="var(--fill-0, #BC1F3C)" fill-opacity="0.2"/>
<path id="Vector_573" d="M140.708 25.5679H153.5V38.3075H140.708V25.5679Z" fill="var(--fill-0, #BC1F3C)" fill-opacity="0.2"/>
<path id="Vector_574" d="M127.917 25.5679H140.708V38.3075H127.917V25.5679Z" fill="var(--fill-0, #BC1F3C)" fill-opacity="0.2"/>
<path id="Vector_575" d="M217.458 12.8228H230.25V25.5675H217.458V12.8228Z" fill="var(--fill-0, #BC1F3C)" fill-opacity="0.2"/>
<path id="Vector_576" d="M204.667 12.8228H217.458V25.5675H204.667V12.8228Z" fill="var(--fill-0, #BC1F3C)" fill-opacity="0.2"/>
<path id="Vector_577" d="M191.875 12.8228H204.667V25.5675H191.875V12.8228Z" fill="var(--fill-0, #BC1F3C)" fill-opacity="0.2"/>
<path id="Vector_578" d="M179.083 12.8228H191.875V25.5675H179.083V12.8228Z" fill="var(--fill-0, #BC1F3C)" fill-opacity="0.2"/>
<path id="Vector_579" d="M166.292 12.8228H179.083V25.5675H166.292V12.8228Z" fill="var(--fill-0, #BC1F3C)" fill-opacity="0.2"/>
<path id="Vector_580" d="M153.5 12.8228H166.292V25.5675H153.5V12.8228Z" fill="var(--fill-0, #BC1F3C)" fill-opacity="0.2"/>
<path id="Vector_581" d="M140.708 12.8228H153.5V25.5675H140.708V12.8228Z" fill="var(--fill-0, #BC1F3C)" fill-opacity="0.2"/>
<path id="Vector_582" d="M229.125 0H243.792V13.6875H229.125V0Z" fill="var(--fill-0, black)"/>
<path id="Vector_583" d="M230.25 0.0834961H243.042V12.8231H230.25V0.0834961Z" fill="var(--fill-0, #FF6B7F)"/>
<path id="Vector_584" d="M217.125 0H230.459V13.6875H217.125V0Z" fill="var(--fill-0, black)"/>
<path id="Vector_585" d="M217.458 0.0834961H230.25V12.8231H217.458V0.0834961Z" fill="var(--fill-0, #FF6B7F)"/>
<path id="Vector_586" d="M203.792 0H218.458V13.6875H203.792V0Z" fill="var(--fill-0, black)"/>
<path id="Vector_587" d="M204.667 0.0834961H217.458V12.8231H204.667V0.0834961Z" fill="var(--fill-0, #FF6B7F)"/>
<path id="Vector_588" d="M191.792 0H205.125V13.6875H191.792V0Z" fill="var(--fill-0, black)"/>
<path id="Vector_589" d="M191.875 0.0834961H204.667V12.8231H191.875V0.0834961Z" fill="var(--fill-0, #FF6B7F)"/>
<path id="Vector_590" d="M178.458 0H193.125V13.6875H178.458V0Z" fill="var(--fill-0, black)"/>
<path id="Vector_591" d="M179.083 0.0834961H191.875V12.8231H179.083V0.0834961Z" fill="var(--fill-0, #FF6B7F)"/>
<path id="Vector_592" d="M165.125 0H179.792V13.6875H165.125V0Z" fill="var(--fill-0, black)"/>
<path id="Vector_593" d="M166.292 0.0834961H179.084V12.8231H166.292V0.0834961Z" fill="var(--fill-0, #FF6B7F)"/>
<path id="Vector_594" d="M153.125 0H166.459V13.6875H153.125V0Z" fill="var(--fill-0, black)"/>
<path id="Vector_595" d="M153.5 0.0834961H166.292V12.8231H153.5V0.0834961Z" fill="var(--fill-0, #FF6B7F)"/>
<path id="Vector_596" d="M89.5417 51.0522H102.333V63.7918H89.5417V51.0522Z" fill="var(--fill-0, #FF6B7F)"/>
<path id="Vector_597" d="M76.7502 51.0522H89.5419V63.7918H76.7502V51.0522Z" fill="var(--fill-0, #FF6B7F)"/>
<path id="Vector_598" d="M63.9585 51.0522H76.7502V63.7918H63.9585V51.0522Z" fill="var(--fill-0, #FF6B7F)"/>
<path id="Vector_599" d="M102.333 38.3071H115.125V51.0519H102.333V38.3071Z" fill="var(--fill-0, #FF6B7F)"/>
<path id="Vector_600" d="M115.125 25.5679H127.917V38.3075H115.125V25.5679Z" fill="var(--fill-0, #FF6B7F)"/>
<path id="Vector_601" d="M102.333 25.5679H115.125V38.3075H102.333V25.5679Z" fill="var(--fill-0, #FF6B7F)"/>
<path id="Vector_602" d="M127.917 12.8228H140.708V25.5675H127.917V12.8228Z" fill="var(--fill-0, #FF6B7F)"/>
<path id="Vector_603" d="M115.125 12.8228H127.917V25.5675H115.125V12.8228Z" fill="var(--fill-0, #FF6B7F)"/>
<path id="Vector_604" d="M102.333 12.8228H115.125V25.5675H102.333V12.8228Z" fill="var(--fill-0, #FF6B7F)"/>
<path id="Vector_605" d="M139.792 0H154.458V13.6875H139.792V0Z" fill="var(--fill-0, black)"/>
<path id="Vector_606" d="M140.708 0.0834961H153.5V12.8231H140.708V0.0834961Z" fill="var(--fill-0, #FF6B7F)"/>
<path id="Vector_607" d="M127.917 0.0834961H140.708V12.8231H127.917V0.0834961Z" fill="var(--fill-0, #FF6B7F)"/>
<path id="Vector_608" d="M127.792 0H141.125V13.6875H127.792V0Z" fill="var(--fill-0, black)"/>
<path id="Vector_609" d="M114.458 0H129.125V13.6875H114.458V0Z" fill="var(--fill-0, black)"/>
<path id="Vector_610" d="M115.125 0.0834961H127.917V12.8231H115.125V0.0834961Z" fill="var(--fill-0, #FF6B7F)"/>
<path id="Vector_611" d="M204.667 76.5312H217.458V89.276H204.667V76.5312Z" fill="var(--fill-0, #FF90A9)" fill-opacity="0.2"/>
<path id="Vector_612" d="M217.458 63.7915H230.25V76.5311H217.458V63.7915Z" fill="var(--fill-0, #FF90A9)" fill-opacity="0.2"/>
<path id="Vector_613" d="M230.25 51.0522H243.042V63.7918H230.25V51.0522Z" fill="var(--fill-0, #FF90A9)" fill-opacity="0.2"/>
<path id="Vector_614" d="M243.042 38.3071H255.833V51.0519H243.042V38.3071Z" fill="var(--fill-0, #FF90A9)" fill-opacity="0.2"/>
<path id="Vector_615" d="M255.833 25.5679H268.625V38.3075H255.833V25.5679Z" fill="var(--fill-0, #FF90A9)" fill-opacity="0.2"/>
<path id="Vector_616" d="M268.625 12.8228H281.417V25.5675H268.625V12.8228Z" fill="var(--fill-0, #FF90A9)" fill-opacity="0.2"/>
<path id="Vector_617" d="M76.7502 51.0522H89.5419V63.7918H76.7502V51.0522Z" fill="var(--fill-0, #FF90A9)" fill-opacity="0.2"/>
<path id="Vector_618" d="M63.9585 51.0522H76.7502V63.7918H63.9585V51.0522Z" fill="var(--fill-0, #FF90A9)" fill-opacity="0.2"/>
<path id="Vector_619" d="M102.333 25.5679H115.125V38.3075H102.333V25.5679Z" fill="var(--fill-0, #FF90A9)" fill-opacity="0.2"/>
<path id="Vector_620" d="M115.125 12.8228H127.917V25.5675H115.125V12.8228Z" fill="var(--fill-0, #FF90A9)" fill-opacity="0.2"/>
<path id="Vector_621" d="M102.333 12.8228H115.125V25.5675H102.333V12.8228Z" fill="var(--fill-0, #FF90A9)" fill-opacity="0.2"/>
<path id="Vector_622" d="M127.792 0H141.125V13.6875H127.792V0Z" fill="var(--fill-0, black)"/>
<path id="Vector_623" d="M127.917 0.0834961H140.708V12.8231H127.917V0.0834961Z" fill="var(--fill-0, #FF90A9)" fill-opacity="0.2"/>
<path id="Vector_624" d="M114.458 0H129.125V13.6875H114.458V0Z" fill="var(--fill-0, black)"/>
<path id="Vector_625" d="M115.125 0.0834961H127.917V12.8231H115.125V0.0834961Z" fill="var(--fill-0, #FF90A9)" fill-opacity="0.2"/>
</g>
</svg>
