<svg preserveAspectRatio="none" width="100%" height="100%" overflow="visible" style="display: block;" viewBox="0 0 510.815 543.057" fill="none" xmlns="http://www.w3.org/2000/svg">
<g id="Group 1">
<path id="Vector" d="M36.8408 355.302C30.8825 364.094 30.8825 366.396 36.8408 375.182C28.0544 369.229 25.7523 369.229 16.9658 375.182C22.919 366.396 22.919 364.094 16.9658 355.302C25.7523 361.271 28.044 361.271 36.8408 355.302ZM508.95 153.016C499.44 138.995 499.44 135.328 508.95 121.307C494.929 130.818 491.268 130.818 477.247 121.307C486.758 135.328 486.758 138.995 477.247 153.016C491.268 143.505 494.919 143.505 508.95 153.016ZM17.7002 202.078L27.2731 194.333L37.3565 201.411L32.945 189.901L42.794 182.495L30.4867 183.13L26.4971 171.469L23.3044 183.375L10.9867 183.568L21.32 190.286L17.7002 202.078ZM510.815 379.693L498.508 380.328L494.513 368.667L491.32 380.573L479.002 380.771L489.336 387.484L485.726 399.266L495.304 391.521L505.383 398.599L500.976 387.089L510.815 379.693ZM484.784 414.693C484.685 420.224 481.185 424.896 476.325 426.75V458.281C476.325 486.969 452.997 510.318 424.299 510.318H217.716C231.362 525.49 230.659 531.833 228.122 535.672C226.633 537.922 224.133 539.896 218.591 539.896C211.955 539.896 200.94 537.057 182.039 528.443C173.638 524.625 164.455 520.005 154.773 514.729C146.992 526.568 147.398 530.354 156.013 543.057C142.664 534.005 139.174 534.005 125.815 543.057C134.862 529.703 134.862 526.214 125.815 512.865C138.429 521.422 142.258 521.88 153.903 514.266C153.903 514.266 153.903 514.266 153.893 514.266C151.57 512.995 149.2 511.703 146.82 510.328H97.9606C69.2783 510.328 45.9346 486.984 45.9346 458.292V442.188C38.6481 436.318 31.9919 430.625 26.1013 425.214C-1.93521 399.474 -1.78417 390.521 1.46583 385.609C3.41896 382.656 8.33041 375.24 45.9242 392.125V170.943C40.8877 169.031 37.3669 164.109 37.4658 158.391C37.5648 152.859 41.0648 148.188 45.9242 146.333V52.0365C45.9346 23.3438 69.2887 0 97.9606 0H424.299C453.008 0 476.325 23.3438 476.325 52.0365V402.141C481.362 404.073 484.903 409 484.784 414.693ZM45.9346 402.505C19.8252 390.313 11.5023 390.599 9.54917 390.995C10.1533 395.646 21.4502 409.536 45.9346 429.995V402.505ZM204.669 510.307H166.476C196.883 526.229 215.289 531.656 219.987 530.339C219.643 528.74 217.539 523.167 204.669 510.307ZM432.231 151.448C432.231 138.401 421.612 127.792 408.58 127.792H113.7C100.648 127.792 90.0544 138.411 90.0544 151.448V446.365C90.0544 459.422 100.648 470.021 113.7 470.021H408.57C421.601 470.021 432.221 459.422 432.221 446.365V151.448H432.231Z" fill="var(--fill-0, #FBDBE4)"/>
<path id="Vector_2" d="M424.299 9.453H97.9607C74.4867 9.453 55.3982 28.578 55.3982 52.0363V73.0676H466.872V52.0363C466.872 28.578 447.773 9.453 424.299 9.453ZM307.924 64.2811C307.924 64.2811 287.909 51.1665 287.909 39.4061C287.909 33.8645 292.393 29.4009 297.919 29.4009C303.45 29.4009 307.924 33.8645 307.924 39.4061C307.924 33.8645 312.388 29.4009 317.929 29.4009C323.455 29.4009 327.945 33.8645 327.945 39.4061C327.945 50.828 307.924 64.2811 307.924 64.2811ZM364.679 64.2811C364.679 64.2811 344.664 51.1665 344.664 39.4061C344.664 33.8645 349.148 29.4009 354.674 29.4009C360.205 29.4009 364.679 33.8645 364.679 39.4061C364.679 33.8645 369.143 29.4009 374.685 29.4009C380.216 29.4009 384.69 33.8645 384.69 39.4061C384.7 50.828 364.679 64.2811 364.679 64.2811ZM421.445 64.2811C421.445 64.2811 401.429 51.1665 401.429 39.4061C401.429 33.8645 405.914 29.4009 411.445 29.4009C416.971 29.4009 421.445 33.8645 421.445 39.4061C421.445 33.8645 425.914 29.4009 431.45 29.4009C436.982 29.4009 441.466 33.8645 441.466 39.4061C441.455 50.828 421.445 64.2811 421.445 64.2811Z" fill="var(--fill-0, #DCE6F5)"/>
<path id="Vector_3" d="M384.7 39.4167C384.7 50.8281 364.679 64.2917 364.679 64.2917C364.679 64.2917 344.664 51.1667 344.664 39.4167C344.664 33.875 349.148 29.4115 354.674 29.4115C360.205 29.4115 364.679 33.875 364.679 39.4167C364.679 33.875 369.143 29.4115 374.685 29.4115C380.216 29.4115 384.7 33.875 384.7 39.4167ZM476.325 52.0365V458.271C476.325 486.958 452.997 510.307 424.299 510.307H97.9606C69.2783 510.307 45.9346 486.958 45.9346 458.271V52.0365C45.9346 23.3438 69.2887 0 97.9606 0H424.299C453.008 0 476.325 23.3438 476.325 52.0365ZM466.872 97.5677H55.3981V458.271C55.3981 481.76 74.4867 500.849 97.971 500.849H424.299C447.773 500.849 466.872 481.76 466.872 458.271V97.5677ZM466.872 52.0365C466.872 28.5677 447.784 9.45313 424.299 9.45313H97.9606C74.4867 9.45313 55.3981 28.5781 55.3981 52.0365V88.1094H466.872V52.0365ZM30.5023 183.13L26.5075 171.469L23.3148 183.375L10.9971 183.568L21.3304 190.286L17.7106 202.068L27.2835 194.323L37.3669 201.401L32.9554 189.891L42.8096 182.484L30.5023 183.13ZM510.815 379.693L498.508 380.328L494.513 368.667L491.32 380.573L479.002 380.771L489.336 387.484L485.726 399.266L495.304 391.521L505.383 398.599L500.976 387.089L510.815 379.693Z" fill="var(--fill-0, #F399C0)"/>
<path id="Vector_4" d="M466.752 82.526H55.1274V73.0677H466.752V82.526ZM421.445 64.2812C421.445 64.2812 441.466 50.8281 441.466 39.4062C441.466 33.8645 436.982 29.401 431.45 29.401C425.914 29.401 421.445 33.8645 421.445 39.4062C421.445 33.8645 416.961 29.401 411.445 29.401C405.914 29.401 401.429 33.8645 401.429 39.4062C401.429 51.1666 421.445 64.2812 421.445 64.2812ZM307.924 64.2812C307.924 64.2812 327.945 50.8281 327.945 39.4062C327.945 33.8645 323.456 29.401 317.929 29.401C312.388 29.401 307.924 33.8645 307.924 39.4062C307.924 33.8645 303.44 29.401 297.919 29.401C292.393 29.401 287.909 33.8645 287.909 39.4062C287.909 51.1666 307.924 64.2812 307.924 64.2812ZM441.685 151.448V446.365C441.685 464.635 426.831 479.479 408.581 479.479H113.7C99.6274 479.479 87.5753 470.646 82.7993 458.224C81.367 454.542 80.5857 450.547 80.5857 446.365V151.448C80.5857 133.177 95.4399 118.333 113.69 118.333H408.56C426.831 118.323 441.685 133.177 441.685 151.448ZM432.232 151.448C432.232 138.401 421.612 127.792 408.581 127.792H113.7C100.648 127.792 90.0545 138.411 90.0545 151.448V446.365C90.0545 459.422 100.648 470.021 113.7 470.021H408.57C421.601 470.021 432.221 459.422 432.221 446.365V151.448H432.232ZM55.3982 146.333C53.9972 145.786 52.5024 145.49 50.9139 145.443C49.1587 145.401 47.4712 145.708 45.9347 146.312C41.0753 148.167 37.5753 152.839 37.4764 158.37C37.3774 164.083 40.8982 169 45.9347 170.922C47.3357 171.469 48.8305 171.776 50.4191 171.807C52.1743 171.844 53.867 171.547 55.3982 170.943C60.2576 169.089 63.7576 164.417 63.8566 158.885C63.9451 153.167 60.4243 148.245 55.3982 146.333ZM476.325 402.141C474.945 401.594 473.429 401.286 471.862 401.25C470.107 401.208 468.419 401.536 466.872 402.141C462.013 404.016 458.523 408.667 458.414 414.198C458.315 419.917 461.836 424.828 466.872 426.74C468.273 427.286 469.768 427.594 471.357 427.625C473.112 427.661 474.804 427.344 476.325 426.74C481.185 424.885 484.685 420.208 484.784 414.682C484.903 409 481.362 404.073 476.325 402.141ZM16.9659 355.302C22.9191 364.094 22.9191 366.396 16.9659 375.182C25.7524 369.229 28.0545 369.229 36.8409 375.182C30.8826 366.396 30.8826 364.094 36.8409 355.302C28.0441 361.271 25.7524 361.271 16.9659 355.302ZM125.815 512.854C134.862 526.203 134.862 529.693 125.815 543.047C139.164 533.995 142.648 533.995 156.013 543.047C146.95 529.693 146.95 526.203 156.013 512.854C142.648 521.906 139.164 521.906 125.815 512.854ZM508.95 121.307C494.929 130.818 491.268 130.818 477.247 121.307C486.758 135.328 486.758 138.995 477.247 153.016C491.268 143.516 494.929 143.516 508.95 153.016C499.44 138.995 499.44 135.328 508.95 121.307Z" fill="var(--fill-0, #B2C2E3)"/>
<path id="Vector_5" d="M50.4191 171.807C50.3982 171.807 50.3774 171.797 50.3566 171.797V145.458C50.5389 145.458 50.7264 145.432 50.9139 145.443C52.5024 145.49 53.9972 145.787 55.3982 146.333C60.4347 148.245 63.9555 153.167 63.8566 158.885C63.7576 164.417 60.2576 169.089 55.3982 170.943C53.867 171.547 52.1743 171.844 50.4191 171.807ZM476.325 402.141C474.945 401.594 473.429 401.287 471.862 401.25C471.575 401.24 471.294 401.266 471.008 401.276V427.594C471.127 427.594 471.237 427.625 471.357 427.625C473.112 427.662 474.804 427.344 476.325 426.74C481.185 424.885 484.685 420.208 484.784 414.682C484.903 409 481.362 404.073 476.325 402.141ZM217.45 510.021H204.388C204.471 510.109 204.586 510.219 204.669 510.307C217.539 523.156 219.633 528.74 219.987 530.339C215.289 531.646 196.883 526.214 166.476 510.307C161.091 507.49 155.331 504.349 149.179 500.849C138.581 494.818 126.909 487.719 114.164 479.49C111.456 477.745 108.69 475.932 105.893 474.068C97.6222 468.604 89.9191 463.307 82.8149 458.224C72.5024 450.922 63.3878 444.052 55.3982 437.698C52.0545 435.031 48.893 432.479 45.9451 429.995C21.4503 409.547 10.1535 395.656 9.54929 390.995C11.492 390.599 19.7941 390.313 45.8045 402.438V392.037C8.33054 375.24 3.41908 382.635 1.47637 385.583C-1.78405 390.5 -1.92467 399.453 26.1118 425.193C31.992 430.599 38.6587 436.307 45.9451 442.167C48.992 444.62 52.1535 447.125 55.3982 449.635C69.0441 460.193 84.4035 471.172 100.679 481.958C110.784 488.662 120.831 494.99 130.596 500.839C136.122 504.172 141.534 507.333 146.831 510.297C149.211 511.656 151.581 512.964 153.903 514.234C154.19 514.391 154.497 514.552 154.773 514.708C164.456 519.984 173.638 524.604 182.039 528.422C200.94 537.031 211.956 539.875 218.591 539.875C224.133 539.875 226.633 537.901 228.122 535.651C230.659 531.813 231.362 525.469 217.716 510.297C217.627 510.219 217.539 510.12 217.45 510.021ZM443.825 170.37C449.778 179.172 449.778 181.464 443.825 190.26C452.622 184.307 454.914 184.307 463.711 190.26C457.758 181.464 457.758 179.172 463.711 170.37C454.914 176.349 452.622 176.349 443.825 170.37Z" fill="var(--fill-0, #FFD571)"/>
</g>
</svg>
