<svg preserveAspectRatio="none" width="100%" height="100%" overflow="visible" style="display: block;" viewBox="0 0 200.161 139.609" fill="none" xmlns="http://www.w3.org/2000/svg">
<g id="Group 11">
<path id="Vector" d="M154.245 80.8333H138.979V96.0885H123.719V111.339H108.453V126.594H93.1927V111.339H77.9323V96.0885H62.6667V80.8333H47.4063V50.5833H62.6667V35.3333H93.1927V50.5833H108.453V35.3333H138.979V50.5833H154.245V80.8333ZM200.161 20.3073V27.0781H179.844V47.3906H173.068V27.0781H152.75V20.3073H173.073V0H179.844V20.3125H200.161V20.3073ZM179.844 20.3073H173.073V27.0781H179.844V20.3073ZM151.833 100.969H159.526V93.2865H151.833V100.969ZM29.8594 23.6927H22.1667V31.375H29.8594V23.6927ZM64.2135 17.8802H56.526V25.5625H64.2135V17.8802ZM49.7969 32.9323H42.1042V40.6198H49.7969V32.9323ZM180.24 90.4375H172.547V98.125H180.24V90.4375ZM140.922 118.766H148.609V111.078H140.922V118.766ZM24.2813 131.927V139.609H31.974V124.245H24.2813V131.927ZM39.6615 108.88V116.563H55.0365V108.88H39.6615ZM31.974 108.88H24.2813V116.563H31.974V108.88ZM24.2813 93.5104V101.198H31.974V85.8281H24.2813V93.5104ZM1.22396 108.88V116.563H16.6042V108.88H1.22396ZM21.8438 41.2969C11.8958 48.8542 9.96354 48.8542 0 41.276C7.57812 51.2344 7.58333 53.1615 0.0260417 63.1094C9.96875 55.5521 11.901 55.5521 21.8698 63.1302C14.2865 53.1719 14.2813 51.2396 21.8438 41.2969ZM183.984 113.37C174.036 120.927 172.099 120.927 162.141 113.344C169.719 123.302 169.724 125.234 162.161 135.177C172.109 127.62 174.042 127.62 184.01 135.203C176.422 125.245 176.422 123.313 183.984 113.37Z" fill="var(--fill-0, #9FBCF7)"/>
<path id="Vector_2" d="M138.979 50.5834V80.8334H123.719V96.0886H108.453V111.339H93.1927V96.0886H77.9323V80.8334H62.6667V50.5834H93.1927V65.8386H108.453V50.5834H138.979Z" fill="var(--fill-0, #FFC5DD)"/>
<path id="Vector_3" d="M179.844 13.5365H173.073V0H179.844V13.5365ZM179.844 40.6198V33.849H173.073V47.3906H179.844V40.6198ZM193.391 20.3073H186.615V27.0781H200.161V20.3073H193.391ZM152.75 20.3073V27.0781H166.297V20.3073H152.75ZM29.8594 23.6927H22.1667V31.375H29.8594V23.6927ZM56.526 25.5625H64.2135V17.8802H56.526V25.5625ZM172.547 98.125H180.24V90.4427H172.547V98.125ZM140.922 118.766H148.609V111.078H140.922V118.766ZM24.2813 101.198H31.974V93.5104H24.2813V101.198ZM24.2813 131.927H31.974V124.245H24.2813V131.927ZM39.6615 116.563H47.3438V108.88H39.6615V116.563ZM31.974 108.88H24.2813V116.563H31.974V108.88ZM8.90625 116.563H16.599V108.88H8.90625V116.563Z" fill="var(--fill-0, #E4C1F4)"/>
<path id="Vector_4" d="M77.9323 50.5834H62.6666V35.3334H93.1927V50.5834H77.9323ZM108.453 65.8386V50.5834H93.1927V65.8386H108.453ZM62.6666 65.5782V50.5834H47.4062V80.8334H62.6666V65.5782ZM62.6666 80.8334V96.0886H77.9323V80.8334H62.6666ZM77.9323 96.0886V111.339H93.1927V96.0886H77.9323ZM138.979 50.5834V35.3334H108.453V50.5834H138.979ZM154.245 65.8386V50.5834H138.979V80.8334H154.245V65.8386ZM123.719 96.0886H138.979V80.8334H123.719V96.0886ZM108.453 111.339H123.719V96.0886H108.453V111.339ZM93.1927 126.594H108.453V111.339H93.1927V126.594ZM186.615 20.3073V27.0782H179.844V33.849H173.068V27.0782H166.292V20.3073H173.068V13.5365H179.844V20.3073H186.615ZM179.844 20.3073H173.073V27.0782H179.844V20.3073ZM151.833 100.969H159.526V93.2865H151.833V100.969ZM49.7969 32.9323H42.1041V40.6198H49.7969V32.9323ZM24.2812 93.5105H31.9739V85.8282H24.2812V93.5105ZM24.2812 139.609H31.9739V131.927H24.2812V139.609ZM47.3437 116.563H55.0364V108.88H47.3437V116.563ZM1.22394 116.563H8.91144V108.88H1.22394V116.563Z" fill="var(--fill-0, #FF99BB)"/>
<path id="Vector_5" d="M124.797 55.7031V64.4427H116.052V55.7031H124.797ZM124.797 64.4427V73.1823H133.542V64.4427H124.797Z" fill="var(--fill-0, white)"/>
</g>
</svg>
