<svg preserveAspectRatio="none" width="100%" height="100%" overflow="visible" style="display: block;" viewBox="0 0 307 285" fill="none" xmlns="http://www.w3.org/2000/svg">
<g id="Group 21">
<path id="Vector" d="M287.813 76.0262V57.0314H268.625V38.0418H249.438V19.047H191.875V0.0522461H115.125V19.047H57.5625V38.0418H38.375V57.0314H19.1875V76.0262H0V170.99H19.1875V208.979H38.375V227.969H57.5625V246.964H95.9375V265.959H134.313V284.948H172.688V265.959H211.063V246.964H249.438V227.969H268.625V208.979H287.813V170.99H307V76.0262H287.813Z" fill="var(--fill-0, #493157)"/>
<path id="Vector_2" d="M268.609 76.0205V57.0413H249.448V38.0361H172.698V57.0413H134.307V76.0205H115.115V57.0413H95.948V38.0361H57.5574V57.0413H38.3647V76.0205H19.198V171H38.3647V208.989H57.5574V227.968H95.948V246.974H134.307V265.953H172.698V246.974H211.057V227.968H249.448V208.989H268.609V171H287.807V76.0205H268.609Z" fill="var(--fill-0, #F5A4A7)"/>
<path id="Vector_3" d="M157.177 10.8853L138.136 10.0571L115.125 19.0467L105.531 39.0207L115.125 57.0311L125.052 64.8436L134.313 57.0311L142.12 47.5363H159.495L172.688 38.0415L178.703 15.8488L157.177 10.8853Z" fill="var(--fill-0, #C9770A)"/>
<path id="Vector_4" d="M153.5 76.0259V95.0207H134.313V133.005H172.688V114.01H191.875V76.0259H153.5Z" fill="var(--fill-0, white)"/>
<path id="Vector_5" d="M191.875 57.0312H211.063V76.026H191.875V57.0312Z" fill="var(--fill-0, white)"/>
<path id="Vector_6" d="M38.3751 95.0205H57.5626V114.01H38.3751V95.0205Z" fill="var(--fill-0, white)"/>
<path id="Vector_7" d="M57.5626 76.0259H76.7501V95.0207H57.5626V76.0259Z" fill="var(--fill-0, white)"/>
<path id="Vector_8" d="M76.7501 151.906H95.9376V170.896H76.7501V151.906Z" fill="var(--fill-0, #BD7E81)"/>
<path id="Vector_9" d="M297.985 87.9061L287.813 76.0259L276.735 68.4842L268.625 57.0311L261.662 47.63L249.438 38.0415H230.25V57.0311H249.438V152H230.25V170.989H211.063V189.984H172.688V208.979H115.125V170.989H95.9376V189.984H57.5626V170.989H38.3751V152H19.1876L11.6251 159.187L19.1876 170.989L30.172 182.854L29.6772 193.12L38.3751 208.979L51.698 217.781L57.5626 227.969L76.7553 236.87L87.797 237.469L95.9376 246.963L113.63 253.64L123.344 256.458L134.313 265.958L153.5 272.62L172.688 265.958L181.63 254.302L195.979 254.969L211.063 246.963L219.823 235.547L235.5 237.469L249.438 227.969L256.474 215.021L268.625 208.979L275.573 193.286L277.229 177.229L287.813 170.989L295.995 151.906L298.422 131.161L301.073 107.328L297.985 87.9061Z" fill="var(--fill-0, #BD7E81)"/>
<path id="Vector_10" d="M104.854 46.4688L97.0678 29.4219L76.7501 38.0417V57.0313H95.9376V76.026L105.531 82.3906L115.125 76.026L122.568 66.5313L115.125 57.0313L104.854 46.4688Z" fill="var(--fill-0, #BD7E81)"/>
<path id="Vector_11" d="M133.995 264.667H173.995V285H133.995V264.667Z" fill="var(--fill-0, black)"/>
<path id="Vector_12" d="M134.313 265.958V284.948H172.688V265.958H134.313Z" fill="var(--fill-0, #493157)"/>
<path id="Vector_13" d="M172.688 246.963V265.958H211.063V246.963H172.688Z" fill="var(--fill-0, #493157)"/>
<path id="Vector_14" d="M115.125 246.963H95.9376V265.958H134.313V246.963H115.125Z" fill="var(--fill-0, #493157)"/>
<path id="Vector_15" d="M211.063 227.969V246.964H249.438V227.969H211.063Z" fill="var(--fill-0, #493157)"/>
<path id="Vector_16" d="M76.7501 227.969H57.5626V246.964H95.9376V227.969H76.7501Z" fill="var(--fill-0, #493157)"/>
<path id="Vector_17" d="M249.438 208.979H268.625V227.969H249.438V208.979Z" fill="var(--fill-0, #493157)"/>
<path id="Vector_18" d="M38.3751 208.979H57.5626V227.969H38.3751V208.979Z" fill="var(--fill-0, #493157)"/>
<path id="Vector_19" d="M268.625 189.984V208.979H287.813V170.989H268.625V189.984Z" fill="var(--fill-0, #493157)"/>
<path id="Vector_20" d="M38.3751 170.989H19.1876V208.979H38.3751V170.989Z" fill="var(--fill-0, #493157)"/>
<path id="Vector_21" d="M0 75.333H19.3281V171.333H0V75.333Z" fill="var(--fill-0, black)"/>
<path id="Vector_22" d="M19.1875 133.005V76.0259H0V170.989H19.1875V133.005Z" fill="var(--fill-0, #493157)"/>
<path id="Vector_23" d="M287.328 75.333H307V171.333H287.328V75.333Z" fill="var(--fill-0, black)"/>
<path id="Vector_24" d="M287.813 76.0259V170.989H307V76.0259H287.813Z" fill="var(--fill-0, #493157)"/>
<path id="Vector_25" d="M95.9376 76.0259H115.125V95.0207H95.9376V76.0259Z" fill="var(--fill-0, #493157)"/>
<path id="Vector_26" d="M268.625 57.0312H287.813V76.026H268.625V57.0312Z" fill="var(--fill-0, #493157)"/>
<path id="Vector_27" d="M115.125 57.0312H134.313V76.026H115.125V57.0312Z" fill="var(--fill-0, #493157)"/>
<path id="Vector_28" d="M19.1876 57.0312H38.3751V76.026H19.1876V57.0312Z" fill="var(--fill-0, #493157)"/>
<path id="Vector_29" d="M249.438 38.0415H268.625V57.0311H249.438V38.0415Z" fill="var(--fill-0, #493157)"/>
<path id="Vector_30" d="M134.313 38.0415V57.0311H172.688V38.0415H134.313Z" fill="var(--fill-0, #493157)"/>
<path id="Vector_31" d="M38.3751 38.0415H57.5626V57.0311H38.3751V38.0415Z" fill="var(--fill-0, #493157)"/>
<path id="Vector_32" d="M95.9376 38.0417V57.0313H115.125V19.0469H57.5626V38.0417H95.9376Z" fill="var(--fill-0, #493157)"/>
<path id="Vector_33" d="M113.995 0H249.995V39.3333H113.995V0Z" fill="var(--fill-0, black)"/>
<path id="Vector_34" d="M153.5 19.047H172.688V38.0418H249.438V19.047H191.875V0.0522461H115.125V19.047H153.5Z" fill="var(--fill-0, #493157)"/>
</g>
</svg>
