<svg preserveAspectRatio="none" width="100%" height="100%" overflow="visible" style="display: block;" viewBox="0 0 200.146 200.266" fill="none" xmlns="http://www.w3.org/2000/svg">
<g id="Group 8">
<path id="Vector" d="M151.651 46.5417H133.682V28.5729H151.651V46.5417ZM17.901 53.7813H35.875V35.875H53.776V17.901H35.875V0H17.901V17.901H0V35.875H17.901V53.7813ZM181.583 77.3958L174.693 70.5L166.391 78.8021L173.281 85.6979L181.583 77.3958ZM13.4792 131.135L5.17708 139.438L12.0677 146.328L20.3698 138.026L13.4792 131.135ZM174.964 25.4271C186.167 16.9063 188.344 16.9115 199.568 25.4531C191.031 14.224 191.026 12.0521 199.542 0.84375C188.339 9.36458 186.161 9.35938 174.943 0.817708C183.479 12.0417 183.479 14.2188 174.964 25.4271ZM181.583 60.8021L173.505 52.724L166.615 59.6146L174.693 67.6927L181.583 60.8021ZM184.391 60.8021L191.281 67.6927L200.146 58.8281L193.255 51.9375L184.391 60.8021ZM5.40104 120.25L13.4792 128.328L20.3698 121.432L12.2969 113.359L5.40104 120.25ZM149.333 68.8177H112.01V32.0313H80.4063V69.1146H80.4688H43.2969V100.714H80.2135V137.266H112.208V100.938H149.333V68.8177ZM164.74 128.87H146.766V146.771H128.87V164.745H146.766V182.646H164.74V164.745H182.641V146.771H164.74V128.87ZM184.391 77.3958L192.13 85.1302L199.021 78.2396L191.276 70.5L184.391 77.3958ZM37.75 175.661C26.5417 184.177 24.3646 184.172 13.1458 175.635C21.6875 186.859 21.6875 189.031 13.1719 200.24C24.375 191.724 26.5521 191.729 37.776 200.266C29.2292 189.042 29.2292 186.87 37.75 175.661ZM23.1823 138.026L30.9219 145.766L37.8125 138.87L30.0729 131.135L23.1823 138.026ZM62.5052 171.76H80.474V153.786H62.5052V171.76ZM23.1823 121.432L30.0781 128.328L38.9427 119.458L32.0521 112.568L23.1823 121.432Z" fill="var(--fill-0, #FFC5DD)"/>
<path id="Vector_2" d="M37.776 200.266C26.5469 191.729 24.375 191.724 13.1667 200.24C21.6875 189.036 21.6823 186.859 13.1406 175.635C24.3594 184.172 26.5417 184.177 37.7448 175.661C29.2292 186.87 29.2292 189.042 37.776 200.266ZM112.01 32.0312H80.4063V69.1146H111.979V100.193H80.6563V69.1146H43.2969V100.714H80.2135V137.266H112.208V100.937H149.333V68.8125H112.01V32.0312ZM199.542 0.84373C188.339 9.36456 186.156 9.35935 174.938 0.817688C183.479 12.0416 183.479 14.2187 174.964 25.4271C186.167 16.9062 188.344 16.9114 199.568 25.4531C191.026 14.2239 191.026 12.0521 199.542 0.84373Z" fill="var(--fill-0, #9FBCF7)"/>
<path id="Vector_3" d="M12.2969 113.359L20.3698 121.432L13.4791 128.328L5.40102 120.25L12.2969 113.359ZM200.146 58.8281L193.255 51.9375L184.391 60.8021L191.281 67.6927L200.146 58.8281ZM23.1823 138.026L30.9219 145.766L37.8125 138.87L30.0729 131.135L23.1823 138.026ZM5.17706 139.438L12.0677 146.328L20.3698 138.026L13.4791 131.135L5.17706 139.438ZM23.1823 121.432L30.0781 128.328L38.9427 119.458L32.0521 112.568L23.1823 121.432ZM184.391 77.3958L192.13 85.1302L199.021 78.2396L191.276 70.5L184.391 77.3958ZM166.615 59.6146L174.693 67.6927L181.583 60.8021L173.505 52.724L166.615 59.6146ZM166.391 78.8073L173.281 85.6979L181.583 77.3958L174.693 70.5052L166.391 78.8073Z" fill="var(--fill-0, #E4C1F4)"/>
<path id="Vector_4" d="M151.651 46.5417H133.682V28.5729H151.651V46.5417ZM182.641 146.771V164.74H164.74V182.641H146.766V164.74H128.87V146.771H146.766V128.865H164.74V146.771H182.641ZM164.672 146.839H146.839V164.672H164.672V146.839ZM35.875 17.901H53.776V35.875H35.875V53.7813H17.901V35.875H0V17.901H17.901V0H35.875V17.901ZM35.8073 17.974H17.974V35.8073H35.8073V17.974ZM62.5052 171.76H80.474V153.786H62.5052V171.76Z" fill="var(--fill-0, #FF99BB)"/>
</g>
</svg>
