<svg preserveAspectRatio="none" width="100%" height="100%" overflow="visible" style="display: block;" viewBox="0 0 200.188 200.245" fill="none" xmlns="http://www.w3.org/2000/svg">
<g id="Group 3">
<path id="Vector" d="M200.188 91.8542V108.063H124.641V124.13H108.453V200.245H92.2656V124.13H76.3073V140.339H60.1198V124.13H76.3021V108.063H0.53125V91.8542H76.3021V75.8542H60.1198V59.6406H76.3073V75.849H92.2656V0H108.453V0.00520833H108.458V75.849H124.641V59.6458H140.828V75.8542H124.646V91.8542H200.188ZM0 167.698H16.1875V151.49H0V167.698ZM198.557 29.0104H182.37V45.2188H198.557V29.0104ZM140.828 140.339V156.552H157.021V140.339H140.828V124.13H124.641V140.339H140.828ZM43.9271 156.552H60.1198V140.339H43.9271V156.552ZM157.021 43.4323H140.828V59.6458H157.021V43.4323ZM43.9271 43.4323V59.6458H60.1198V43.4323H43.9271ZM187.031 158.005C173.901 167.995 171.349 167.99 158.198 157.969C168.208 171.141 168.208 173.693 158.229 186.839C171.359 176.849 173.911 176.849 187.063 186.87C177.052 173.703 177.052 171.146 187.031 158.005ZM14.4323 42.8698C27.5625 32.875 30.1146 32.8802 43.2656 42.8958C33.2552 29.7292 33.2552 27.1771 43.2344 14.0313C30.1042 24.026 27.5521 24.0208 14.4063 14C24.4115 27.1667 24.4167 29.724 14.4323 42.8698Z" fill="var(--fill-0, #E4C1F4)"/>
<path id="Vector_2" d="M200.188 91.8542V108.063H108.453V184.036H92.2656V184.219V108.063H0.53125V91.8542H92.2656V16.2083H108.453V16.0156H108.458V91.8542H200.188Z" fill="var(--fill-0, #FF99BB)"/>
<path id="Vector_3" d="M60.1198 43.4323V59.6458H43.9271V43.4323H60.1198ZM60.1198 59.6458V75.8541H76.3073V59.6458H60.1198ZM157.016 43.4323H140.828V59.6458H157.021V43.4323H157.016ZM140.828 59.6458H124.641V75.8541H140.828V59.6458ZM108.453 107.922V92.0573H124.641V75.8489H108.453V91.9166H92.4896V75.8489H76.3021V92.0573H92.2657V107.922H76.3021V124.135H92.4896V108.125H108.453V124.135H124.641V107.922H108.453ZM124.641 124.13V140.339H140.828V124.13H124.641ZM140.828 140.339V156.552H157.021V140.339H140.828ZM60.1198 140.339H76.3073V124.13H60.1198V140.339ZM43.9271 156.552H60.1198V140.339H43.9271V156.552Z" fill="var(--fill-0, #FFC5DD)"/>
<path id="Vector_4" d="M187.063 186.87C173.911 176.849 171.359 176.844 158.229 186.839C168.208 173.693 168.208 171.141 158.198 157.969C171.349 167.99 173.901 167.995 187.031 158.005C177.052 171.146 177.052 173.703 187.063 186.87ZM43.2344 14.0313C30.1042 24.0261 27.5521 24.0208 14.4062 14C24.4115 27.1667 24.4167 29.724 14.4323 42.8646C27.5625 32.875 30.1146 32.8802 43.2656 42.8958C33.2552 29.7292 33.2552 27.1771 43.2344 14.0313Z" fill="var(--fill-0, #9FBCF7)"/>
</g>
</svg>
