<svg preserveAspectRatio="none" width="100%" height="100%" overflow="visible" style="display: block;" viewBox="0 0 171.411 200.245" fill="none" xmlns="http://www.w3.org/2000/svg">
<g id="Group 5">
<path id="Vector" d="M28.0312 144.943H37.7865V154.677H28.0312V144.943Z" fill="var(--fill-0, #E4C1F4)"/>
<path id="Vector_2" d="M28.0312 37.8489H37.7865V47.5833H28.0312V37.8489Z" fill="var(--fill-0, #E4C1F4)"/>
<path id="Vector_3" d="M80.7865 0H90.5417V29.7292H80.7865V0Z" fill="var(--fill-0, #E4C1F4)"/>
<path id="Vector_4" d="M80.7865 169.281H90.5417V200.245H80.7865V169.281Z" fill="var(--fill-0, #E4C1F4)"/>
<path id="Vector_5" d="M134.542 39.4635H144.297V49.2031H134.542V39.4635Z" fill="var(--fill-0, #E4C1F4)"/>
<path id="Vector_6" d="M12.6041 61.8802H22.3593V71.6198H12.6041V61.8802Z" fill="var(--fill-0, #E4C1F4)"/>
<path id="Vector_7" d="M134.542 144.943H144.302V154.677H134.542V144.943Z" fill="var(--fill-0, #E4C1F4)"/>
<path id="Vector_8" d="M41.974 52.9114H51.7292V62.651H41.974V52.9114Z" fill="var(--fill-0, #E4C1F4)"/>
<path id="Vector_9" d="M100.536 91.8125V91.6823H100.505V82.1198H90.5417V39.4635H80.7865V82.1198H71.2396V72.3854H61.4844V62.651H51.7292V72.3854H61.4844V82.1198H71.2396V91.8125H0V101.547H71.2396V111.328H61.4844V121.062H51.7292V130.797H61.4844V121.068H71.2396V111.328H80.7865V159.542H90.5417V111.328H100.505V101.615H100.536V101.547H171.411V91.8125H100.536Z" fill="var(--fill-0, #E4C1F4)"/>
<path id="Vector_10" d="M110.26 72.3854H120.016V62.651H129.771V52.9114H120.01V62.651H110.26V72.3854H100.505V82.1198H110.26V72.3854Z" fill="var(--fill-0, #E4C1F4)"/>
<path id="Vector_11" d="M41.974 130.797H51.7292V140.536H41.974V130.797Z" fill="var(--fill-0, #E4C1F4)"/>
<path id="Vector_12" d="M110.26 121.068V130.797H120.01V140.536H129.771V130.797H120.016V121.063H110.26V111.328H100.505V121.068H110.26Z" fill="var(--fill-0, #E4C1F4)"/>
<path id="Vector_13" d="M12.6041 61.8802H22.3593V71.6198H12.6041V61.8802Z" fill="var(--fill-0, #FF99BB)"/>
<path id="Vector_14" d="M149.63 118.786H159.385V128.521H149.63V118.786Z" fill="var(--fill-0, #FF99BB)"/>
<path id="Vector_15" d="M41.974 52.9114V62.651H51.7292V52.9114H41.974Z" fill="var(--fill-0, #FF99BB)"/>
<path id="Vector_16" d="M51.7291 62.651H61.4843V72.3854H51.7291V62.651Z" fill="var(--fill-0, #FF99BB)"/>
<path id="Vector_17" d="M61.4844 72.3854H71.2396V82.1198H61.4844V72.3854Z" fill="var(--fill-0, #FF99BB)"/>
<path id="Vector_18" d="M71.2396 82.1198H80.9948V91.8541H71.2396V82.1198Z" fill="var(--fill-0, #FF99BB)"/>
<path id="Vector_19" d="M90.75 101.594H100.505V111.328H90.75V101.594Z" fill="var(--fill-0, #FF99BB)"/>
<path id="Vector_20" d="M100.505 111.328H110.26V121.068H100.505V111.328Z" fill="var(--fill-0, #FF99BB)"/>
<path id="Vector_21" d="M110.26 121.062H120.016V130.797H110.26V121.062Z" fill="var(--fill-0, #FF99BB)"/>
<path id="Vector_22" d="M120.01 130.797H129.771V140.536H120.01V130.797Z" fill="var(--fill-0, #FF99BB)"/>
<path id="Vector_23" d="M120.016 52.9114H129.771V62.651H120.016V52.9114Z" fill="var(--fill-0, #FF99BB)"/>
<path id="Vector_24" d="M110.26 62.6458H120.016V72.3854H110.26V62.6458Z" fill="var(--fill-0, #FF99BB)"/>
<path id="Vector_25" d="M100.505 72.3854H110.26V82.1198H100.505V72.3854Z" fill="var(--fill-0, #FF99BB)"/>
<path id="Vector_26" d="M90.75 82.1198H100.505V91.8541H90.75V82.1198Z" fill="var(--fill-0, #FF99BB)"/>
<path id="Vector_27" d="M80.9948 91.8541H90.75V101.594H80.9948V91.8541Z" fill="var(--fill-0, #FF99BB)"/>
<path id="Vector_28" d="M71.2396 101.594H80.9948V111.328H71.2396V101.594Z" fill="var(--fill-0, #FF99BB)"/>
<path id="Vector_29" d="M61.4844 111.328H71.2396V121.068H61.4844V111.328Z" fill="var(--fill-0, #FF99BB)"/>
<path id="Vector_30" d="M51.7291 121.062H61.4843V130.797H51.7291V121.062Z" fill="var(--fill-0, #FF99BB)"/>
<path id="Vector_31" d="M41.974 130.797H51.7292V140.536H41.974V130.797Z" fill="var(--fill-0, #FF99BB)"/>
<path id="Vector_32" d="M80.7865 169.281H90.5417V200.245H80.7865V169.281ZM90.5417 0H80.7865V29.7292H90.5417V0ZM134.542 39.4635V49.2031H144.302V39.4635H134.542ZM134.542 154.677H144.302V144.943H134.542V154.677ZM28.0312 154.677H37.7865V144.943H28.0312V154.677ZM28.0312 47.5833H37.7865V37.849H28.0312V47.5833ZM90.776 101.615H100.536V91.6823H90.776V101.615ZM80.9948 91.6823H71.2396V101.609H80.9948V111.328H90.75V101.594H80.9948V91.8542H90.75V82.1198H80.9948V91.6823Z" fill="var(--fill-0, #FFC5DD)"/>
<path id="Vector_33" d="M164.005 79.7552C155.349 73.1823 153.672 73.1823 145.031 79.7344C151.599 71.1094 151.599 69.4375 145.01 60.7969C153.667 67.3698 155.344 67.375 163.984 60.8177C157.417 69.4427 157.417 71.1146 164.005 79.7552Z" fill="var(--fill-0, #9FBCF7)"/>
<path id="Vector_34" d="M27.9115 133.693C19.2604 127.12 17.5781 127.12 8.9375 133.672C15.5052 125.052 15.5052 123.375 8.92188 114.74C17.5729 121.312 19.2552 121.312 27.8906 114.76C21.3229 123.38 21.3281 125.057 27.9115 133.693Z" fill="var(--fill-0, #9FBCF7)"/>
</g>
</svg>
