<svg preserveAspectRatio="none" width="100%" height="100%" overflow="visible" style="display: block;" viewBox="0 0 161.125 200.094" fill="none" xmlns="http://www.w3.org/2000/svg">
<g id="Group 2">
<path id="Vector" d="M24.5 46.4792H11.9271V33.9375H24.5V46.4792ZM131.526 165.766H144.099V153.224H131.526V165.766ZM32.7292 137.568C17.8281 148.865 14.9323 148.859 0 137.531C11.3594 152.422 11.3646 155.313 0.03125 170.177C14.9375 158.875 17.8333 158.88 32.7656 170.214C21.4062 155.323 21.401 152.432 32.7292 137.568ZM161.089 33.6875C146.182 44.9896 143.286 44.9844 128.354 33.651C139.719 48.5469 139.719 51.4323 128.391 66.2969C143.297 55 146.193 55 161.125 66.3333C149.76 51.4479 149.76 48.5573 161.089 33.6875ZM42.9531 200.094H56.3438V186.734H42.9531V200.094ZM120.161 0H106.771V13.3542H120.161V0ZM133.766 91.9479H102.792V75.9948H87.1354V30.776H71.1458V75.9948H55.4896V91.9479H24.5V107.901H55.4948V123.849H71.1458V169.828H87.1406V123.849H102.797V107.901H133.766V91.9479Z" fill="var(--fill-0, #FFC5DD)"/>
<path id="Vector_2" d="M24.5 46.4792H11.9271V33.9376H24.5V46.4792ZM131.526 165.766H144.099V153.224H131.526V165.766ZM32.7292 137.568C17.8281 148.865 14.9323 148.859 0 137.531C11.3594 152.422 11.3646 155.313 0.03125 170.177C14.9375 158.875 17.8333 158.88 32.7656 170.214C21.4062 155.323 21.401 152.432 32.7292 137.568ZM161.089 33.6876C146.182 44.9897 143.286 44.9845 128.354 33.6511C139.719 48.547 139.719 51.4324 128.391 66.297C143.297 55.0001 146.193 55.0001 161.125 66.3334C149.76 51.448 149.76 48.5574 161.089 33.6876Z" fill="var(--fill-0, #9FBCF7)"/>
<path id="Vector_3" d="M42.9531 186.734H56.3437V200.094H42.9531V186.734ZM106.771 0V13.3542H120.161V0H106.771ZM102.792 91.9479H118.448V107.901H102.792V123.849H87.1354V139.802H71.1458V123.849H55.4895V107.901H39.8385V91.9479H55.4948V75.9948H71.1458V60.0469H87.1406V75.9948H102.797V91.9479H102.792ZM102.458 91.9479H86.802V75.9948H71.4843V91.9479H55.8281V107.901H71.4843V123.849H86.802V107.901H102.458V91.9479Z" fill="var(--fill-0, #FF99BB)"/>
<path id="Vector_4" d="M24.5 91.9479H40.4896V107.901H24.5V91.9479ZM71.1458 45.0989V61.052H87.1406V30.776H71.1458V45.0989ZM71.1458 153.87V169.823H87.1406V139.292H71.1458V153.87ZM117.771 91.9479V107.901H133.766V91.9479H117.771Z" fill="var(--fill-0, #E4C1F4)"/>
</g>
</svg>
