<svg preserveAspectRatio="none" width="100%" height="100%" overflow="visible" style="display: block;" viewBox="0 0 307 307" fill="none" xmlns="http://www.w3.org/2000/svg">
<g id="Group 18">
<path id="Vector" d="M287.813 230.25V191.875H268.625V134.313H249.438V95.9375H230.25V57.5625H211.063V19.1875H191.875V0H115.125V19.1875H95.9375V57.5625H76.75V95.9375H57.5625V134.313H38.375V191.875H19.1875V230.25H0V287.813H19.1875V307H287.813V287.813H307V230.25H287.813Z" fill="var(--fill-0, #493157)"/>
<path id="Vector_2" d="M273.458 241.198L252.094 236.891L230.25 249.438L209.208 239.208L200.266 257.094L190.495 256.594L176.755 256.427L160.86 256.927L140.656 257.755L123.104 259.031L103.068 258.75L85.0157 255.932L69.4532 259.031L57.5626 249.438L38.3751 240.203L19.1876 249.438V287.813H287.813V249.438L273.458 241.198Z" fill="var(--fill-0, #7EAD31)"/>
<path id="Vector_3" d="M249.448 191.886V134.302H230.255V95.9429H211.063V57.5522H191.865V19.1929H115.115V57.5522H95.948V95.9429H76.7553V134.302H57.5625V191.886H38.3646V230.245H268.615V191.886H249.448Z" fill="var(--fill-0, #FA575E)"/>
<path id="Vector_4" d="M276.771 222.151L275.943 207.745L268.625 191.875L259.031 182.745L255.573 172.688L256.401 153.5L249.438 134.313L239.844 124.62L238.849 111.703L230.25 95.9377L220.656 86.2033L217.49 73.1252L211.063 57.5627L200.266 45.9689L198.115 31.396L191.875 19.1877L173.109 10.8647L153.5 19.1877V57.5627H172.688V115.125H191.875V153.5H211.063V211.063H230.25V230.25L219.724 240.448L230.25 249.438H287.813V230.25L276.771 222.151Z" fill="var(--fill-0, #A83B3F)"/>
<path id="Vector_5" d="M211.063 230.25H19.1876V249.438H57.5626V268.625H211.063V249.438H230.25V230.25H211.063Z" fill="var(--fill-0, white)"/>
<path id="Vector_6" d="M172.688 191.875L163.094 181.25L153.5 191.875V211.063H172.688V191.875Z" fill="var(--fill-0, white)"/>
<path id="Vector_7" d="M95.9376 191.875L86.3439 178.104L76.7501 191.875V211.063H95.9376V191.875Z" fill="var(--fill-0, white)"/>
<path id="Vector_8" d="M134.313 115.125L125.365 103.427L115.125 115.125V134.313H134.313V115.125Z" fill="var(--fill-0, white)"/>
<path id="Vector_9" d="M17.9949 286.933H288.662V307H17.9949V286.933Z" fill="var(--fill-0, black)"/>
<path id="Vector_10" d="M249.438 287.813H19.1876V307H287.813V287.813H249.438Z" fill="var(--fill-0, #493157)"/>
<path id="Vector_11" d="M0 229.599H19.3281V288.266H0V229.599Z" fill="var(--fill-0, black)"/>
<path id="Vector_12" d="M19.1875 249.438V230.25H0V287.813H19.1875V249.438Z" fill="var(--fill-0, #493157)"/>
<path id="Vector_13" d="M287.328 229.599H307V288.266H287.328V229.599Z" fill="var(--fill-0, black)"/>
<path id="Vector_14" d="M287.813 230.25V287.813H307V230.25H287.813Z" fill="var(--fill-0, #493157)"/>
<path id="Vector_15" d="M268.625 230.25H287.813V191.875H268.625V230.25Z" fill="var(--fill-0, #493157)"/>
<path id="Vector_16" d="M38.3751 211.063V191.875H19.1876V230.25H38.3751V211.063Z" fill="var(--fill-0, #493157)"/>
<path id="Vector_17" d="M57.5626 172.688V134.312H38.3751V191.875H57.5626V172.688Z" fill="var(--fill-0, #493157)"/>
<path id="Vector_18" d="M249.438 172.688V191.875H268.625V134.312H249.438V172.688Z" fill="var(--fill-0, #493157)"/>
<path id="Vector_19" d="M153.5 172.688V191.875H172.688V153.5H153.5V172.688Z" fill="var(--fill-0, #493157)"/>
<path id="Vector_20" d="M76.7501 172.688V191.875H95.9376V153.5H76.7501V172.688Z" fill="var(--fill-0, #493157)"/>
<path id="Vector_21" d="M230.25 134.313H249.438V95.9375H230.25V134.313Z" fill="var(--fill-0, #493157)"/>
<path id="Vector_22" d="M76.7501 115.125V95.9375H57.5626V134.313H76.7501V115.125Z" fill="var(--fill-0, #493157)"/>
<path id="Vector_23" d="M211.063 95.9375H230.25V57.5625H211.063V95.9375Z" fill="var(--fill-0, #493157)"/>
<path id="Vector_24" d="M115.125 95.9375V115.125H134.313V76.75H115.125V95.9375Z" fill="var(--fill-0, #493157)"/>
<path id="Vector_25" d="M95.9376 76.75V57.5625H76.7501V95.9375H95.9376V76.75Z" fill="var(--fill-0, #493157)"/>
<path id="Vector_26" d="M191.875 57.5625H211.063V19.1875H191.875V57.5625Z" fill="var(--fill-0, #493157)"/>
<path id="Vector_27" d="M115.125 38.375V19.1875H95.9376V57.5625H115.125V38.375Z" fill="var(--fill-0, #493157)"/>
<path id="Vector_28" d="M113.995 0H192.662V20.2656H113.995V0Z" fill="var(--fill-0, black)"/>
<path id="Vector_29" d="M153.5 19.1875H191.875V0H115.125V19.1875H153.5Z" fill="var(--fill-0, #493157)"/>
</g>
</svg>
